/* XPM */
static char *_52f38c144724d3dcc28358cba455c0ehZgl6TgSVH6ffbrp[] = {
/* columns rows colors chars-per-pixel */
"64 64 219 2 ",
"   c #010101",
".  c #0F0F0F",
"X  c #180B07",
"o  c #0E1111",
"O  c #131313",
"+  c #16171C",
"@  c #1B1C1C",
"#  c #2A1810",
"$  c #1E1F20",
"%  c #1E2021",
"&  c #242424",
"*  c #282626",
"=  c #252D2D",
"-  c #2C2C2C",
";  c #372D28",
":  c #35302C",
">  c #3A332E",
",  c #272F30",
"<  c #293131",
"1  c #343434",
"2  c #383838",
"3  c #3B3B3B",
"4  c #4D140E",
"5  c #77150D",
"6  c #771B13",
"7  c #593516",
"8  c #63221D",
"9  c #4E302D",
"0  c #443E3C",
"q  c #4A3938",
"w  c #6B2C26",
"e  c #70342E",
"r  c #753B36",
"t  c #793A34",
"y  c #41412F",
"u  c #494737",
"i  c #77423D",
"p  c #747233",
"a  c #2E4C4D",
"s  c #3D4141",
"d  c #375656",
"f  c #395757",
"g  c #395758",
"h  c #367273",
"j  c #377778",
"k  c #434343",
"l  c #4D4444",
"z  c #484A48",
"x  c #4B4C4C",
"c  c #524241",
"v  c #564947",
"b  c #544B4A",
"n  c #5B4D4C",
"m  c #58564B",
"M  c #4D4F50",
"N  c #465959",
"B  c #535354",
"V  c #5C5554",
"C  c #5C5954",
"Z  c #575959",
"A  c #5B5C5C",
"S  c #645453",
"D  c #635953",
"F  c #626156",
"G  c #446363",
"H  c #496868",
"J  c #5E6060",
"K  c #527071",
"L  c #636464",
"P  c #696766",
"I  c #6C6C6C",
"U  c #766968",
"Y  c #767565",
"T  c #6F6F70",
"R  c #6F7171",
"E  c #737373",
"W  c #7B7676",
"Q  c #7B7C7C",
"!  c #82180F",
"~  c #8A180E",
"^  c #831B13",
"/  c #8B1E15",
"(  c #951D12",
")  c #9B1F14",
"_  c #A21E12",
"`  c #8A2219",
"'  c #982318",
"]  c #A62116",
"[  c #AB2317",
"{  c #A7271B",
"}  c #B22316",
"|  c #B42619",
" . c #BB2719",
".. c #B62B1F",
"X. c #BC281A",
"o. c #89362F",
"O. c #973D36",
"+. c #A72C22",
"@. c #B92E22",
"#. c #AD3126",
"$. c #B9362A",
"%. c #C82719",
"&. c #C62A1C",
"*. c #CC2B1D",
"=. c #D42A1B",
"-. c #D92D1F",
";. c #E72E1E",
":. c #C82F21",
">. c #D92F21",
",. c #C6372B",
"<. c #D43528",
"1. c #DF3629",
"2. c #C83C30",
"3. c #D53E32",
"4. c #E72F20",
"5. c #E63223",
"6. c #E93122",
"7. c #E5372A",
"8. c #E6382A",
"9. c #E63D32",
"0. c #E83D31",
"q. c #8E5B1E",
"w. c #925E22",
"e. c #8B4F32",
"r. c #9E443C",
"t. c #AE443D",
"y. c #95632F",
"u. c #BA7231",
"i. c #C1473F",
"p. c #D84337",
"a. c #E8463A",
"s. c #924E48",
"d. c #975A54",
"f. c #9C5E58",
"g. c #AD564F",
"h. c #90674F",
"j. c #AF6657",
"k. c #816D6B",
"l. c #9D6762",
"z. c #867877",
"x. c #A36862",
"c. c #AA6C67",
"v. c #B1746E",
"b. c #CB4B42",
"n. c #C3645D",
"m. c #CA6E67",
"M. c #CA746C",
"N. c #CDA23F",
"B. c #888442",
"V. c #8F8C7C",
"C. c #AD876A",
"Z. c #BDB872",
"A. c #CB8E51",
"S. c #E1867F",
"D. c #DACD48",
"F. c #DED24C",
"G. c #DBD453",
"H. c #E6D954",
"J. c #E7DA55",
"K. c #EDC463",
"L. c #6A8889",
"P. c #7E8181",
"I. c #789697",
"U. c #838383",
"Y. c #898685",
"T. c #8C8C8C",
"R. c #948A89",
"E. c #9A998A",
"W. c #949494",
"Q. c #979899",
"!. c #9B9B9B",
"~. c #A79997",
"^. c #A2A18F",
"/. c #A9A997",
"(. c #B1B09E",
"). c #8AA9A9",
"_. c #9FA2A3",
"`. c #A3A3A3",
"'. c #A7A8A9",
"]. c #ABABAB",
"[. c #B2A6A4",
"{. c #B5B5A2",
"}. c #BEBEAB",
"|. c #AFAFB0",
" X c #B3B3B3",
".X c #B9B9B9",
"XX c #BCBCBC",
"oX c #D18B87",
"OX c #E48982",
"+X c #E7958E",
"@X c #E89C97",
"#X c #F59B93",
"$X c #CCAE8C",
"%X c #EEA698",
"&X c #C9B9B8",
"*X c #F5B6B3",
"=X c #F2E48D",
"-X c #CAC9BA",
";X c #D4C0BE",
":X c #F5D9A1",
">X c #BFBFC0",
",X c #BFC2C2",
"<X c #C3C3C4",
"1X c #CCC9C3",
"2X c #CBCBCB",
"3X c #D8C6C5",
"4X c #D9D8C8",
"5X c #D2D2D2",
"6X c #DBD5D5",
"7X c #DBDBDB",
"8X c #E0D1CF",
"9X c #E8D7D6",
"0X c #EFECD0",
"qX c #E3E4E4",
"wX c #EFE6E5",
"eX c #EBEBEB",
"rX c #F9EFEE",
"tX c #F4F3F3",
"yX c #FCFCFC",
/* pixels */
"B B B B B B B B B x W.7X7X7X7X7X7X7X7X7X7X7X7X7X7X7XQ & L !. X<X2X2X2X2X2X<XXX XQ.P 2 1 z x B B M M B x x B B B B B B B B B B G ",
"A A A A A A F C B z W.7X5X2X2X2X5X5X2X5X5X2X2X5X2X XB - L ].XX`.`.`.Q.Q.Q.Q.W.!.U.z - - B Q T.T.T.T.T.U.Q I A M m m B B B B b G ",
"T.T.T.T.T.Y.Z.B.2 x W.7X2XXX>X>XXX<XXX<X<XXX.X<X|.Q k * I >X>XQ.Q.!.!.!.!.Q.Q.Q.I k - - J  X6X5X5X5X5X2X.X].!.T.Z.Z.Y.T.T.T.T.L.",
"2X2X<XXX{.$X:XV.u D ^.1X'./.{.{././.{.{.{././.{.^.Y u y Y {.{.E.E.^.(.(.(.^.E.V.Y m y y Y }.9X4X-X-X-XXX1X4X4X4X0X:X$X-X1X<X<X).",
"].].].$XK.=X0X$XN.F.J.B.+ p G.G.J.J.J.J.J.J.J.J.J.F.D.D.F.J.J.J.J.J.J.J.J.J.J.J.F.D.D.D.F.J.J.J.J.J.p @ B.J.J.=X0X=XJ.K.$X!.!.I.",
"'./.`.C.u.u.D.N.w.y.w.h.l X # 7 q.q.w.w.w.w.w.w.w.w.w.w.w.w.w.w.w.w.w.w.w.w.w.w.w.w.w.w.w.w.w.q.q.7 X l x 7 y.y.A.A.u.u.h.W !.I.",
" X!.!.~.k.D h.e.2 m 0 : o.=.} 4 X # ; ; ; ; : : : : : : : : : : : : : : : > > : : : : : : ; 9 # X 4 ^ 8 o : V V h.y.V D V Q !.L.",
"`.`.!.Q.V.A b 2 & 2 Z P g.6.>.X.] / 6 5 4 & q q c c V Z Z D n v b B M x B b b c l c q q q 8 ^ ' ( ) ] e x A R Q E L A E Q z.T.L.",
"T.T.T.Q L x z 1 & 2 E ,XOX4.>.*.&.| [ ] ( / ' ' { :.+XQ.Q.+X:.+.' x.A x d.^ 6 ` { ..@.,.3.<.>.=.&.| ] t A I U.T.W.T.Q T.W.W.W.L.",
"E I I L x 2 2 - & 2 P .XOX4.>.*.&.X.} ] ) ) ) ] | =.#X`.`.#X=.| _ c.A z f.~ ! ( [  .*.7.9.8.6.>.&.| ] t A I W E I L L L L L P K ",
"B x z k - & & & & 2 A '.OX4.>.*.&.X.} ] ) ) ) ] | =.#X`._.#X=.| _ c.A z f.~ ! ( [ X.*.1.9.8.6.>.&.| ] t B B B B x z z z z z z G ",
"& & & & & - - - 1 z x W.S.4.>.*.&.X.} ] ) ) ) ] | =.#X_._.#X=.| _ c.A z f.~ ! ( [ X.*.1.9.8.6.>.&.| ] w 2 2 2 2 2 2 1 - - - - d ",
"- - - - - - - - 1 z x Q m.6.>.*.&.X.} ] ) ) ) ] | =.#X_._.#X=.| _ c.A z f.~ ! ( [ X.*.1.9.8.6.>.&.| ] w 2 2 1 - - & & & & & & a ",
"2 2 2 2 2 2 2 2 2 z x I j.6.>.*.&.X.} ] ) ) ) ] | =.#X_._.#X=.| _ c.A z f.~ ! ( [ X.*.1.9.8.6.>.&.| ] w - - 2 2 2 2 2 2 2 2 2 f ",
"B z k k k k k k 2 k x A g.6.>.*.&.X.} ] ) ) ) ] | =.#X_._.#X=.| _ c.A z f.~ ! ( [ X.*.1.9.8.6.>.&.| ] 8 & 2 x x x x x x x x x G ",
"Q.Q.Q.Q.W.W.W.T.A - 2 M O.6.>.*.&.X.} ] ) ) ) ] | =.#X_._.#X=.| _ c.A z f.~ ! ( [ X.*.1.9.8.6.>.&.| ] t B P U.!.Q.Q.Q.Q.Q.Q.Q.L.",
"<X<X<X<X<XXX].W.B - 2 M O.6.>.*.&.X.} ] ) ) ) ] | b.*X`._.%X3.$.#.v.Z z l.` ^ ( [ | *.1.9.8.6.>.&.| ] t A I '.5X5X5X5X5X5X5X5X).",
"'.!.`.`.!.].T.W B - 2 M O.6.>.*.&.X.} ] ) ) ) ] b.*XtXQ.`.rX9X8X3X&XL z Y.U i ` {  .*.1.9.8.6.>.&.| ] t A I !.XX X X X X X XXXI.",
"!.!.!.!.!.W.U.I B - 2 M r.6.>.*.&.X.} ] ) ) ' s.~.6X XL !.qX7X5X<X XQ.B $ z P V o...*.1.9.8.6.>.&.| ] t A T T.`.`.`.!.Q.W.Q.!.L.",
"!.W.!.!.!.`.T.L z - 1 M r.6.>.*.&.X.} ] ) ' s.W.W Z '.].Q P L A x z 1 x Q z O x W s.:.1.9.7.6.>.&.| ] t A E T.Q.Q.Q.Q.T.U.Y.R.L.",
"!.!.Q.!.!.W.U.L z - 1 x r.6.>.*.&.X.} ] ) e.T.E A '.].I !.2X<X<XXX].!.A @ 2 L 2 B Y.g.7.9.8.6.>.&.| ] t A E T.!.!.!.!.W.T.T.Q.L.",
"!.W.Q U.T.!.T.L z - - z s.6.>.*.&.X.} ] ' l.A z !.Q.].qX`.B z I  X<X X!.Q k 2 P k A v.9.9.8.6.>.&.| ] t A E T.Q.Q.Q.Q.T.Q U.T.L.",
"T.Y.U.U.Q.!.Q B k - - L j.6.>.*.&.X.} ] x.V 2 T.Q !.tX<XI 2 2 z !.<X].Q.T.Q k x Q 2 U OXa.7.6.>.&.| ] t A T U.!.!.!.!.U.Q U.W.L.",
"T.Q.`.Q.T.T.W B 2 - - Y.S.;.>.*.&. .} e.V.B A W T.qX<XI z k z E  X<XU.1 @ B I k A B L |.m.7.6.-.&.| ] t Z P U.T.T.T.T.W.W.Q.!.L.",
"!.Q.T.Q.W.Q L z 2 - - T.+Xa.p.p.2.$.#.f.x A A A <X XW x z x P ].2XT.-     @ x Q z B B Q @Xa.a.p.2.$.+.e 2 2 x A A L L I W U.T.L.",
"P L L L A x k 2 2 - - T.9X9X8X&X[.R.z.W z A A P XXU.B x z x P ].Q.2 O       @ L x 2 2 W 6X3X;X&X~.z.U l 2 2 2 z z z z z x B A H ",
"z z k 2 2 1 & & & - 2 T.XX!.P.J Z 2 % @ A B A  X2X XW x z k z A k & .         @ B 2 L Q.W Q W L 2 & @ @ & & & & & & & & - 2 2 N ",
"- - - - - 2 z z z z k T.9X9X8X&X[.R.z.W Q.B A <X2XeX<XI z k 2 2 & & O @ @       B B L 7X6X3X;X&X~.z.U 0 & - 2 2 2 1 - - - & & a ",
"B L I Q T.W.T.T.T.I 2 P.+Xa.p.p.2.$.#.f._.B A XX<XeXyX<XI s 2 1 & & & A L @     A B L qX@Xa.a.p.,.#.+.e z x B B B x x x k 2 2 f ",
"Q !.<X5X5X2X<X<X XU.2 P.OX;.-.%.&. .} d.!.B A U.J XXyXtX!.k 2 1 & & 2 W W.A - - E B L qX+X5.4.-.%.} _ t A I U.U.P A A A B z z G ",
"W.<X2X2XXX X].'.'.Q 1 Y.@Xa.p.p.2.$.#.f._.B J Q - L <X<XI 2 2 2 & & O 2 Q U.I Q !.B L qX@Xa.a.p.,.#.+.r A I '.2X<X<X<X<X].L z H ",
"'.2X X].!.!.`.!.!.U.k U.wX9X8X&X[.R.z.W Q.B L Q - 2 A A z 2 2 B k & .   2 E W U.`.x L 7X6X3X;X&X~.z.U V A I Q.`.!.`.`.Q.T.A z H ",
"].2X'.Q.!.!.!.!.!.T.k U.<XQ.P.J Z 2 % @ A b A U.k 2 x x z k L  XQ.2 O     2 E U.U.2 L Q.W Q W L 2 & @ 2 A E U.!.'.!.!.!.Q x 0 G ",
"].<X`.!.!.!.'.Q.Q.z.2 Q 9X9X8X&X[.R.W W z 2 0 L T.B B x z I XXqX5XT.&       2 T.B B A W 6X3X;X&X~.z.U V A E U.T.!.!.T.!.U.z 2 G ",
"'.2X].!.W.!.`.!.!.W 2 Q +Xa.p.p.2.$.#.f.z B B A <X XQ L W XXeXqX5XT.&       2 P.z A A Q @Xa.a.p.2.$.+.r A E U.Q.!.!.Q.!.U.z 2 N ",
"'.2X`.!.'.!.!.!.!.Q 2 R M.;.-.*.&. .} { l.B A Q T.qXeXeXeXeXeXqX!.2 O     k I k A B L ].n.7.6.-.&.| ] t Z I U.Y.W.W.U.Q.Q k 2 g ",
"'.2X].'.!.!.!.!.!.W 2 P M.6.>.*.*.X.} _ f.V A  XQ !.tXyXyXtXeXqXU.& .   z Q k x Q 2 Q +X9.7.6.>.&.| ] w 2 z B B B B B B z 2 2 f ",
"'.2X/.!.'.!.!.W.Q.Q 2 A n.6.>.*.*.X.} ] ' x.L P <X!.].eXtXtXeXeX!.z & z L 1 2 L k A R.g.0.8.6.>.&.| ] 8 & & - & & & & & & & - g ",
"'.2X`.T.Q.!.!.!.!.E 2 x g.6.>.*.*.X.} ] ) t.oXW T.5X'.E ].qX6X5XXX`.T.B @ 2 B - B W.j.1.9.8.6.>.&.| ] 8 & - 2 2 2 2 2 2 2 2 2 g ",
"'.2X].`.!.W.!.!.!.I - 2 r.6.>.*.*.X.} ] ) ' i.oXz.A !.7X`.L A A x z - z Q z O x Y.g.:.1.9.8.6.>.&.| ] w s x P Q Q Q Q Q Q B k G ",
"'.2X`.W.!.!.!.!.U.B - 1 O.6.>.*.&.X.} ] ) ) ' b.oX].T.P `.qX7X5X<X XQ 2 & z P P s...*.7.9.8.6.>.&.| ] t Z I !.XXXXXXXXXX!.B k H ",
"`.<X].'.!.!.!.!.Q 2 & 2 O.6.>.*.&.X.} ] ) ) ) { @.j.<XQ._.rX9X8X3X&XA z Y.U i ` {  .*.1.9.8.6.>.&.| ] t A I  X7X6X5X2X XQ z 2 G ",
"`.<X'.`.!.!.'.!.E 2 & 2 O.6.>.*.&.X.} ] ) ) ) ] | :.%X`._.%X3.$.#.v.Z z l.` ^ ( [ X.*.1.9.8.6.>.&.| ] t A I `.XXXXXXXX!.P 2 2 G ",
"Q.XX].!.!.Q.T.T.I 2 & 2 O.6.>.*.&.X.} ] ) ) ) ] | =.#X_._.#X=.| _ c.A z f.~ ! ( [ X.*.1.9.8.6.>.&.| ] t A I W.!.!.`.!.T.L 2 1 g ",
"T.].W.!.!.Q I E B - - s O.6.>.*.&.X.} ] ) ) ) ] | =.#X`._.#X=.| _ c.A z f.~ ! ( [ X.*.1.9.8.6.>.&.| ] t A E U.!.'.'.!.U.L 2 1 f ",
"U.].`.`.Q.I B B 2 & 1 s O.6.>.*.&.X.} ] ) ) ) ] | =.#X`._.#X=.| _ c.Z z f.~ ! ( [ X.*.1.9.8.6.>.&.| ] t A E W.!.!.!.!.T.L 2 1 f ",
"L Q W L B B B z - & 2 s O.6.>.*.&.X.} ] ) ) ) ] | =.#X`._.#X=.| _ c.Z z f.~ ! ( [ X.*.1.9.8.6.>.&.| ] t A T U.T.T.W.W.U.L 2 - g ",
"z 2 - - 1 2 2 2 - - 2 z O.6.>.*.&.X.} ] ) ) ) ] | =.#X`._.#X=.| _ c.Z z f.~ ! ( [ X.*.1.9.8.6.>.&.| _ t A E U.Q.!.U.Q Q L 2 - g ",
"B x z 2 - & - - & 1 k s o.6.>.*.*.X.} ] ) ) ) ] | =.#X_._.#X=.| _ c.A z f.~ ! ( [ X.*.1.9.8.6.>.&.| ] t A E Q T.W.T.Q Q L 2 - g ",
"x B B B x x k 1 - 1 k s o.6.>.*.*.X.} ] ) ) ) ] | =.#X_._.#X=.| _ c.A z f.~ ! ( [ X.*.1.9.8.6.>.&.| ] t A E U.T.T.T.T.U.B - - g ",
"L T.`.'.'.!.W.Q A x B x o.6.>.*.&.X.} ] ) ) ) ] | =.#X`._.#X=.| _ c.A z f.~ ! ( [ X.*.1.9.8.6.>.&.| ] t Z P W W W W Q I z - - g ",
"Q  X2X5X5X5X5X<X].'.!.Q g.6.>.*.&.X.} ] ) ) ) ] | =.#X_._.#X=.| _ c.A z f.~ ! ( [ X.*.1.9.8.6.>.&.| ] w 2 2 2 2 2 2 2 2 - & 1 g ",
"Q <X<X].`.].2X2X5X5X2X Xm.6.>.*.&.X.} ] ) ) ) ] | =.#X_._.#X=.| _ c.A z f.~ ! ( [ X.*.1.9.8.5.>.&.| ] 8 & & & & & & & & - 1 s G ",
"Q <X<X'.'.]. X`.`. X<X5XS.;.>.*.*.| } ] ) ) ) ] | =.#X`.`.#X=.| _ c.A z f.~ ! ( [ X.*.1.9.8.5.>.&.| [ 8 $ & - - - - - 1 2 2 z G ",
"Q <X<X!.!.Q.U.Q.!.Q.T.!.M.1.:.@.@.#.{ ' ' ' ' ' [ %.+XQ.Q.+X%.} ) x.B z d.5 5 ^ ' | *.1.0.7.6.>.&.| ] 8 % - 2 2 2 2 2 k z z x H ",
"Q XXXX'.'.!.!.!.Q.W.W.`.~.k.S S S S S S n v l q w / l.A A l.` ` ^ i 2 2 0 X X X 4 ` { ,.3.<.<.:...{ 8 * 2 B B B B B B B B B B H ",
"Q  X].Q.Q.T.Q T.!.W.W.`.!.T.Q W W W W W W R L J C n V B B V n n q : 2 z B x x x b V n c q q q q q c b x L `.<X<X X].!.T.P z x H ",
"Q !.Q L L L L L L L L L L L L L L L L L L L L L A A A A A A Z B k - - k L U.Q Q E I P L L B A L I Q Q U.Q.!.`.'.'.!.!.XX].B 2 H ",
"I W x 2 2 2 2 2 2 2 2 2 2 2 2 2 2 2 2 2 2 2 2 2 2 2 2 2 2 2 2 2 2 - & 2 W !.!.T.Q Q Q Q I B Q ].Q.Q.!.!.'.'.!.!.!.!.!.!.U.2 2 H ",
"z 2 * & & & & & & & & & & & & & & & & & & & & & & & & & & & & & & & & 2 z x x x A L L J A x T. XQ.W.!.!.!.W.!.Q.Q.!.W.T.I 2 2 H ",
"x k 2 2 1 - - - - - - - - - - - - - - - - - - - - - - - - - - - - - - 1 z B z 2 2 - - - - 1 x L A B B A B B B B B A B B B 2 2 H ",
"x x z z k k k k k k k 2 1 1 1 1 1 1 1 1 1 1 1 1 1 2 1 1 1 1 1 1 1 1 1 1 k x x z 2 1 1 1 1 1 k x 2 & & & & & & & & & & & & & 2 G ",
"< < < < = , , , , , , = = = = = = = = = = = = = = = = = = = = = = = = = = < < < = = = = = = = < = = = = = = = = = = = = = = = d ",
"h h h h h h h h h h h h h h h h h h h h h h h h h h h h h h h h h h h h h h h h h h h h h h h h h h h h h h h h h h h h h h h j "
};
