/* XPM */
static char *_3c901ca8f26418bcefca324c1ba2d9ae0I88tfHkZwx88PZ[] = {
/* columns rows colors chars-per-pixel */
"64 64 131 2 ",
"   c black",
".  c white",
"X  c #086FF7",
"o  c gray99",
"O  c #5A5A5A",
"+  c #044192",
"@  c #000307",
"#  c #FBFDFF",
"$  c #676868",
"%  c #343E4D",
"&  c #5D9DFA",
"*  c #79DCFA",
"=  c #02060C",
"-  c #474F5E",
";  c #F4F4F5",
":  c #F8F7F8",
">  c #046DF6",
",  c #0C769E",
"<  c gray98",
"1  c #616264",
"2  c #013E8F",
"3  c #EDEEEF",
"4  c #010913",
"5  c #898C94",
"6  c #0870FA",
"7  c #FEFEFE",
"8  c #555B69",
"9  c #0767E7",
"0  c #F1F1F2",
"q  c #D0D1D4",
"w  c #4F5564",
"e  c #066887",
"r  c DimGray",
"t  c #1B2636",
"y  c #03377C",
"u  c #000103",
"i  c #81858D",
"p  c #051730",
"a  c #5C7FB6",
"s  c #0A0E12",
"d  c #9FA2A9",
"f  c #232E3E",
"g  c #044193",
"h  c #293343",
"j  c #A6A8AF",
"k  c #BDBEC2",
"l  c #0A1C2F",
"z  c #0C7499",
"x  c #065FD4",
"c  c #268CB0",
"v  c #5B5F6C",
"b  c #E3E3E5",
"n  c #75D7F6",
"m  c #0D1924",
"M  c #434A57",
"N  c #ADB1B6",
"B  c #DDDDDF",
"V  c #3C424E",
"C  c #032C63",
"Z  c #9A9BA1",
"A  c #51545A",
"S  c #09131E",
"D  c #E8E9EB",
"F  c #666C79",
"G  c #B9BBC0",
"H  c #056A8A",
"J  c #083347",
"K  c #B1B4B9",
"L  c #93969B",
"P  c #C5C6C8",
"I  c #3E4554",
"U  c #D6D7DA",
"Y  c #333842",
"T  c #5E6370",
"R  c #07336E",
"E  c #C5C9CD",
"W  c #C0C1C4",
"Q  c #032654",
"!  c #0556C2",
"~  c #414141",
"^  c #4A4E55",
"/  c #16212E",
"(  c #E6E7E8",
")  c #043D88",
"_  c #046DF8",
"`  c #0C627E",
"'  c #0E5973",
"]  c #74D0ED",
"[  c #C9CACD",
"{  c #1B2A3A",
"}  c #76B3C6",
"|  c #6D737E",
" . c #0A7EBB",
".. c #606873",
"X. c #5B5D61",
"o. c #032047",
"O. c #7B7D86",
"+. c #26292F",
"@. c #717A85",
"#. c #4B4B4B",
"$. c #064E69",
"%. c #0A5EA3",
"&. c #011B3E",
"*. c #09405A",
"=. c #5BBBDB",
"-. c #737782",
";. c #1D7394",
":. c #399DC0",
">. c #5A7BAF",
",. c #6F929D",
"<. c #717171",
"1. c #0A71B7",
"2. c #164761",
"3. c #70C8E4",
"4. c #1B7B9F",
"5. c #6E868E",
"6. c #7EA3B2",
"7. c #446C7C",
"8. c #96AAC2",
"9. c #0B89CA",
"0. c #A5E6FA",
"q. c #5B6F8D",
"w. c #5C8ED4",
"e. c #5D95E7",
"r. c #90DEF7",
"t. c #507A89",
"y. c #57B6D5",
"u. c #95BDFB",
"i. c #8CBBCE",
"p. c #A6E3F5",
"a. c #0548A0",
/* pixels */
". o < < < < < < < < < < < < < < < < < < < < < < < < < < < < < < < < < < < < < < < < < < < < < < < < < < < < < < < < < < < < o . ",
"o L O O O O O O O O O O O 1 F T O O O O O O O O O O O O O O O O O O O O O O O O O O O O O O T F 1 O O O O O O O O O O O O O L o ",
"< O                       V G i s u u u u u u                                             @ | k ^ @                         O < ",
"< O                     = v # 3 6.' $.$.$.$.$.l                                           S j . B - @                       O < ",
"< O                   = t 5.r.0.r.:.z e *.m m 4                                         s i 3 . 7 F 4                       O < ",
"< O                   l ;.3.* * * n :.*.=                                           S t i 3 . . . B M @                     O < ",
"< O               u m ' c n * * n p.8./                                           S O.B 0 . . . . o 8 @                     O < ",
"< O               s ' H c n * * } N ; 5 S                                       @ ..0 . . . . . . < 8 @                     O < ",
"< O               S ` H c n * * } d . : 5 m u     @ @ @ @ @ @ @ @ @ @         u m 5 . . . . . . . < | s                     O < ",
"< O               S ` H c n * * } d b 0 : -.= u @ m t t t Y % % % % h = u u   = T ; . . . . . . . . D I @                   O < ",
"< O               S ` H c n * * n } 5.W . 5 S m { ^ 1 1 O.U 3 3 3 3 q - I h @ m 5 . . . . . . . . . : M @                   O < ",
"< O             u s $.z :.n * * * n ] 0.D Z V ^ 1 O.5 5 B . . . . . 7 0 ; P - i ; . . . . . . . . . < | S                   O < ",
"< O                 m ;.] * * * * * * * 6.r $ $ $ P < : 7 . . . . . . . . o ; : . . . . . . . . . . . 3 M @                 O < ",
"< O                 @ 2.] * * * * * * ] ,.$ $ r i B . . . . . . . . . . . . . . . . . . . . . . . . . ; - @                 O < ",
"< O                 4 ' ] * * * * * ] ,.$ $ $ $ [ . . . . . . . . . . . . . . . . . . . . . . . . . . ; - @                 O < ",
"< O               @ J c n * * ] } } ,.$ $ $ $ i B . . . . . . . . . . . . . . . . . . . . . . . . . . ; - @                 O < ",
"< O           @ / J e c n ] } ,.r r r r $ $ $ P . . . . . . . . . . . . . . . . . . . . . . . . . . . ; - @                 O < ",
"< O           J ` e H c n 3.5.r X.I I O r $ $ P . . . . . . . . . . . . . . . . . . . . . . . . . . . ; - @                 O < ",
"< O       @ J ` e e H c n * } X.h l l f O r 5 B . . . . . < K 0 . . . . . . . . . . . . . . . . . . . ; - @                 O < ",
"< O       4 ' e e e H c n * =.` J l l l f O W . . . . . < j L 3 . . . . . . . . . . . . . . . . . . . ; - @                 O < ",
"< O       4 ' e e e H c n ] :., e 2.J l l f K . . . . < L % U . . . . . . . . . . . . . . . . . . . . ; - @                 O < ",
"< O       4 ' e e e H c 3.:., , , , e $.J l 8 q . . < Z h 5 0 . . . . . . . . . . . . . . . . . . . . ; - @                 O < ",
"< O       4 ' e e e H c =., z , , , , , ` J p j . . : w i 0 . . . . . . . . . . . . . . . . . . . . . ; - @                 O < ",
"< O       @ { ` e e H c =., , , z  . ., , e J j . . : 8 E . . . . . o o o o 7 . . . . . . . . . . . . ; - @                 O < ",
"< O         @ l J ` H c =., , z 1.%.%.1.z , *.j . . : 8 P . . . 7 ( O.F F F Z o . . . . . . . . . . < 5 / u                 O < ",
"< O             @ l J c =., z  .1.Q o.%. ., *.j . . : 8 P . . D | | N K K K L Z < . . . . . . . . . : M @                   O < ",
"< O                 = ' y., z  .%.l l %.9.z *.j . . : 8 W o D F % G 7 . . . 3 d d . . . . . < : o . : ^ =                   O < ",
"< O                 @ h t.z z  .%.l l %.9.z 2.j . . : 8 I w w % G o . . . . . 3 B . . . . . Z w G : ; ^ =                   O < ",
"< O                 = { ^ *.z , 1.) $. ., z 6.3 . . 7 q Y t j q o . . . . . . . . . . . . . B T V - G M @                   O < ",
"< O               @ m t f J z , ,  . ., z 4.E . . . . : w f q . . . . . . . . . . . . . . . . ( q T % m u                   O < ",
"< O             @ m f O O X.7.;.z , , z 4.} B D D D < 7 U - M q D o . . . . . . . . . . . . . . . b v m =                   O < ",
"< O             4 f O $ r r $ ..7.;.;.4.i.5 Y % % % E . . U w - | 3 . . . . : b b b b b b b : . . . b I =                   O < ",
"< O           @ / O $ $ $ $ $ $ $ ..F K < L / p p h E . . 7 D b ( o . . . < j I w w w w w V Z b ; . : M @                   O < ",
"< O           @ t 1 r $ $ $ $ $ $ <.K < . ; i t h K o . . . . . . . . . . P h O.( ( ( ( D 5 h h G . : ..S                   O < ",
"< O           @ / A X.$ r r $ $ <.N < . . . : F d 7 . . . . . . . . < U q j F P ( . . . . : | p N . . ( M @                 O < ",
"< O             = m t ^ A X.$ <.N < . . . . . | N . . . . . . o q P K v - i k I @.. . . . . @.l N . . ; - @                 O < ",
"< O               u s f { f A Z o . . . . . b 8 i 0 . . . U E N % w O.D 0 : . j 8 B . . . . @.l N . . ; - @                 O < ",
"< O             u s Y 1 O h % -.G G G k k W T I ..d W W K % t 8 F G ; . . . . [ I O.. . . . @.l N . . ; - @                 O < ",
"< O             @ t 1 $ $ 1 % h T T T - { l I W < L f / w v F ( B 8 3 . . . . . d -.. . . . @.l N . . ; - @                 O < ",
"< O             @ t 1 $ r A h Z o o ( Z % I P . . < L h P . o . B I K < . . . . d w U . . . @.l N . . ; - @                 O < ",
"< O             @ t 1 $ r ^ T < . . G O { L . . . . : 8 E . . . 3 F - ; . . . . [ M i . . . @.l N . . ; - @                 O < ",
"< O             @ t 1 r 1 w d o . . k V I P . . . . : w i 0 . . . D 5 K < . . . . d i . . . @.p N . . ; - @                 O < ",
"< O             @ t 1 1 Y 8 < . . b L % 5 . . . . . < Z % q . . . . q w 0 . . . . d i . . [ M 8 U . . : - 4 C R =           O < ",
"< O             @ t 1 A h d o . . W A v W . . . . . . ; w q . . . . q w 0 . . . 7 d i . P i i U . . o d +.4 x > ) C =       O < ",
"< O             @ t 1 A - : . . b L V 5 . . . . . . . < j Z 3 . . . q w ; . . . . d - 5 5 q . . . o j t   4 x 6 6 9 y @     O < ",
"< O             @ t 1 A - : . . P r V 5 . . . . . . . . 0 8 U . . . q Y Z < . . . d - L q . . . . < 8 @ = y 9 X X 6 9 y @   O < ",
"< O           u m V % h - : . . [ r V 5 . . . . . . . . 3 8 U . . . 0 i w : . q @.5 q . . . . . o d +.  4 x 6 X X X 6 9 a.C X.< ",
"< O           @ t X.^ % f Z < . P r V 5 . . . . . . . . 3 8 U . . . . [ v q -.5 j q . . . . . 7 d +.u = ) 9 X X X X X X 6 9 a o ",
"< O           4 C % 1 1 ^ A ....w M V 5 . . . . . . . . 0 8 U . . . . P h O.j [ . 7 . . . . j T +.  @ ) 9 6 X X X X X X X _ & # ",
"< O         4 C 2 R % 1 r 1 ^ Y l { { 5 o < < < < < < < D 8 q o < o B 8 I P . . . . . o < < | 4 @ 4 ) 9 6 X X X X X X X X > & # ",
"< O       = C + g + R % 1 $ $ 1 A A Y % v v v v v v v v 8 h w v v v - % [ . . . . o < j w 8 f = y ! 9 6 X X X X X X X X X > & # ",
"< O       = y g + g 2 R f f % 1 $ r X.i G k k k k k k k k W k k k k k q 7 . . o : N ^ +.= 4 y ! 9 6 X X X X X X X X X X X > & # ",
"< O       = y g + + g 2 y y R f V 1 1 <.P . . . . . . . . . . . . . . . . o ; G - f 4 4 y ! 9 6 X X X X X X X X X X X X X > & # ",
"< O       = y g + + + + g g 2 y R { t t i 0 3 3 3 3 3 3 3 3 3 3 3 3 3 3 3 W M f = 4 R x 9 6 X X X X X X X X X X X X X X 6 _ & # ",
"< O     = 4 y g + + + + + + + g + Q 4 u / % % % % % % % % % % % % % % % % f u = C x 9 6 X X X X X X X X X X X X X 6 6 > 9 9 e.o ",
"< O   4 C p R + + + + + + + + + g 2 o.  u = s s s s s s s s s s @ @ @ @ u = 4 C 9 6 X X X X X X X X X X X X X X > 9 x ! &.o.q.o ",
"< O 4 R + y o.y + + + + + + + + + g C =   / Y ~ ~ ~ ~ ~ ~ ~ ~ Y =     @ S C x 9 X X X X X X X X X X X X X X X X ! &.o.&.Q x e.o ",
"< T C + g + y p ) g + + + + + + + + 2 Q = @ = +.#.#.#.#.#.#.~ s   @ p Q x 9 6 X X X X X X X X X X X X X X X X ! p Q x 9 9 > & # ",
"o >.2 + + g ) &.R + + + + + + + + + + + Q 4 = = +.~ #.#.~ Y s p p Q x 9 X X X X X X X X X X X X X X X X X X ! p o.x X X X > & # ",
"o a 2 + + + + y o.R + + + + + + + + + + 2 ) &.  u = +.Y s p Q x 9 9 X X X X X X X X X X X X X X X X X X X ! C Q x X X X X > & # ",
"o a 2 + + + + g y p ) g + + + + + + + + + g Q S =   @ @ o.x > X X X X X X X X X X X X X X X X X X X X X ! y x > X X X X X > & # ",
"o >.2 2 2 2 2 2 y &.C 2 2 2 2 2 2 2 2 2 2 2 2 2 o.@   &.! _ > > > > > > > > > > > > > > > > > > > > > ! y x > > > > > > > > & # ",
"# 8.>.a a a a a a >...>.a a a a a a a a a a a a a ..X.w.& & & & & & & & & & & & & & & & & & & & & & & q.w.& & & & & & & & & u.# ",
". # o o o o o o o o o o o o o o o o o o o o o o o o < o # # # # # # # # # # # # # # # # # # # # # # # o o # # # # # # # # # # . "
};
