/* XPM */
static char *_269d659d021418de59367b960f277c4Mj2zPtinCE7wNtys[] = {
/* columns rows colors chars-per-pixel */
"64 64 120 2 ",
"   c #020204",
".  c #04040B",
"X  c #0A0A0A",
"o  c #11110E",
"O  c #010113",
"+  c #0D0D13",
"@  c #00011C",
"#  c #0E0F1A",
"$  c #151412",
"%  c #191917",
"&  c #15151D",
"*  c #19191A",
"=  c #21201E",
"-  c #000223",
";  c #0D0E24",
":  c #00032A",
">  c #0A0D2C",
",  c #0F112D",
"<  c #131424",
"1  c #1B1B24",
"2  c #13142D",
"3  c #191B2C",
"4  c #000333",
"5  c #030832",
"6  c #00033D",
"7  c #05093C",
"8  c #0C0E3B",
"9  c #0F1132",
"0  c #0E113D",
"q  c #121434",
"w  c #171932",
"e  c #191B30",
"r  c #12143D",
"t  c #161A3D",
"y  c #1F2021",
"u  c #212121",
"i  c #2D2E3E",
"p  c #353535",
"a  c #000344",
"s  c #030945",
"d  c #0C0F41",
"f  c #00044C",
"g  c #04084D",
"h  c #0E1144",
"j  c #111545",
"k  c #151A44",
"l  c #12164C",
"z  c #15194A",
"x  c #000453",
"c  c #030B54",
"v  c #00055B",
"b  c #01095B",
"n  c #090E5F",
"m  c #0E1456",
"M  c #0E165D",
"N  c #111754",
"B  c #131856",
"V  c #111759",
"C  c #11185C",
"Z  c #1C2051",
"A  c #292B42",
"S  c #000663",
"D  c #040B65",
"F  c #080F63",
"G  c #00076A",
"H  c #00086E",
"J  c #0D1563",
"K  c #09126C",
"L  c #111961",
"P  c #000772",
"I  c #000873",
"U  c #030C72",
"Y  c #000977",
"T  c #030D77",
"R  c #000979",
"E  c #030D78",
"W  c #000A7C",
"Q  c #030D7C",
"!  c #081170",
"~  c #081277",
"^  c #0E1870",
"/  c #09147D",
"(  c #000A81",
")  c #000B83",
"_  c #000B87",
"`  c #030F85",
"'  c #000C87",
"]  c #000B88",
"[  c #030F88",
"{  c #000C8B",
"}  c #000C8D",
"|  c #051083",
" . c #091586",
".. c #081588",
"X. c #000D93",
"o. c #000E97",
"O. c #000F9B",
"+. c #000F9C",
"@. c #031091",
"#. c #01109C",
"$. c #000FA0",
"%. c #000FA3",
"&. c #0010A3",
"*. c #0011A7",
"=. c #0C18A7",
"-. c #0011A9",
";. c #0112AC",
":. c #0515AF",
">. c #0013B3",
",. c #0214B0",
"<. c #0014BB",
"1. c #081AC2",
"2. c #0A1DC6",
"3. c #0017CD",
"4. c #0019D3",
"5. c #0F21CE",
"6. c #1224D1",
"7. c #1223D4",
"8. c #1B2BD9",
"9. c #2630CF",
/* pixels */
"M X.X.X.X.X.X.X.X.} } X.X.} X.X.X.} } X.} { ( ( W I G v . 3 { X.X.X.X.X.X.X.( R Y Y I @ * ~ o.X.o.o.o.o.o._ W H v - b $.O.O.} a ",
"M X.X._ _ _ W X.{ W R _ W Y _ ( W I R { R I H H H S x a . 3 { X.' _ W } X._ R Y R Y x O * ~ $.+.&.+.&.*.*.&.&.{ I - b $.} ( W a ",
"M } W I R ( ( W H R _ ' W S ( Y S I H I W R G G v x x 6 . 3 ' _ } } R ( ( I I H ( G f O * ~ +.*.*.O.&.;.*.&.O.{ Y : x o.X.{ S : ",
"J _ ( R I Y I R G H R ( R I G S H G I v H S v x f f f a . 3 ' _ W W ( W I I H S v x f O * ~ $.&.O.-.;.&.O.} ( R H - a Y H I v - ",
"J _ Y W { } Y S H G R { ( ( R I I G S v G S S v v f f a . 3 { } W { { I S S S H v f a O * ~ *.O.*.7.1.+.+.o._ H G : f R G v x : ",
"M { W { O.o.} _ _ ( } X.{ ( R G H v S v G G G S v f f a . 3 { X.{ W R H S H I Y S x f O * ~ +.&.+.:.,.O.o.O.( G S - f R v f f - ",
"M X.{ { O.+.o.} W G I X.} W Y I G v S v v G G S x f x a . 3 { X.W I Y Y I I Y H v f a O * ~ +.*.+.o.+.+.O.o.R S S : f H f f f : ",
"M } W R } o.{ W R H I H I R Y H v v G G x S S v x x f a . 3 ' _ R I G Y { _ I S S f f O * ~ +.;.&.O.{ ( } X._ G v - O @ O O O . ",
"J ] Y Y _ _ I H R { W v x v v v x G S G v v S v x f f 6 . 3 ' W Y G G H W W S v x x f O * ~ +.-.+.O.( Y W _ W S x @ 4 G I H H 6 ",
"m W I ( _ R H H _ o.( v x f f x v S S S v v S S v f x 6 . 3 Q R H S S I Y G S x f x f O * ~ +.*.*.O.( Y Y R I v x @ x +.o.o.X.a ",
"m W R W Y R W G H I S S f f f f x v G f a x G G S f f 6 . 3 E Y G S S G I v v x x f a O * ~ +.*.-.+.} W Y W I v x - f X._ _ Y 4 ",
"m R R R S H W H v v v v v f f x x v x 6 6 a v S S f f 6 . 3 T I I S v v v v x f x x f O * ~ +.*.-.+.} ( Y Y H x f @ f } { Y v : ",
"m W Y I S S S v x x v S v v x x f f a a 6 6 f x x f f 6 . 3 U I G S v f f x f f f x f O * ~ O.+.*.} ( W R I G x f @ a ( R S v 4 ",
"m W R H v S v v v x v x x x x x x x f f a a f f f f f 6 . 3 H G H v x f f f f f f f f O * ! +.O.*.O.( ( ( H S x f @ a I S x x : ",
", 4 4 : - - - : : - - @ - - - - - - - - - - - - - - - @   * 4 : 4 - - - - - - @ - - @ . * K $.&.+.o._ ( R S x f f @ @ : - - @ . ",
"c x f f g f f f f f f f f f 7 $ o o o o o o o o o o o o $ * o o o o o o o o o o o o o o * K +.*.X.X.( R Y S x f f @ @ f b b b b ",
"*.$.o.X.+.+.O.X.} O.X.] X.} D $ u 1 r j l j N N V N j j q q 2 2 y u 1 q r l N N l j j r 1 K +.*.O.o.( } ( H S x f @ 6 O.<.<.<.>.",
"&.o._ ( X.+.X.W R } W I ( W x X 1 h S R W R ( } O.X.W H x x f a q 1 1 g H _ W _ Y P G v ; D o.O.&.O.' o._ H S x f @ f &.<.4.3.,.",
"+.} ' { { { ( H H W R G H R x X w G R _ } { X.o.{ { _ G v v x x f 1 1 b _ ( G S G G v v @ v { o.+.*.} W I S v x x - x -.<.4.3.,.",
"} ( } &.O._ I H Y Y R H S H f . h { _ } X.o.o.( S H I v x x f v b & 1 D _ R S v S x x v @ v O.$.&.} R Y H v x x x @ x -.>.>.*.$.",
"{ W { +.&.{ H Y R I G S v H f O x X.} o.{ O.X.H x S S x f f x v v . 1 D ( _ I v v x x f O x O.+.O.I v G H S x x f @ b ;.>.*.+.+.",
"} W Y { O.{ Y Y H G x v S S a O x X.O.+.O.+.X.R S S v f x x x x f . 1 b W I G x f v x f O x _ X.X.Y S S S S f f f @ b ,.,.*.-.&.",
"} Y Y R ( _ Y I Y H v S v x 4 O S } O.o.} o.W Y S S v x x x v v f . * h a 6 4 4 4 4 4 6 . x W { o.W S S S v f f f @ b ;.*.+.O.o.",
"O.{ W W W R R ( R G S S x v 4 @ G _ X._ I I Y H v S S S v v x x x O q t 5 : : : - - - . . b W _ o.W H S S v x f f @ b ;.;.+.X.+.",
"+.} R ( } { ( R R I H v f f 4 @ G _ _ Y R ( Y S x S H { I H S S x @ Q O.*.&.X.{ R W I @ * K { X.{ ( I S S x x f f @ x -.,.*.-.,.",
"o.( I Y } +._ G Y R R I v f 6 @ S W Y Y o.X.W H G H ( *.X.Y S v x @ ( +.&.o.( I H I S O * K $.&.O.{ Y H S v x x x @ x -.-.;.;.&.",
"{ W Y ( o.+.O._ I H I H v f 6 O x Y I I @.=.{ W W R ( X.Y G G S v @ W { } { R H _ G x O * ~ $.+.*.O._ R S v f x x @ f *.>.>.-.O.",
"{ { } _ { o.O.R v S v v x f 4 O f G H W =.9.o.( } ( Y W Y S G v v @ W X._ Y R _ Y S v O * ~ O.X.+.o._ Y S x x v x @ a +.,.,.-.+.",
"_ R _ X.} { X.Y v x f x a f 4 . a G H R { #.X.{ { X._ W R S x S a O W O.X.' { G S H v O * ~ X.{ { W R R H x f f x @ a +.-.-.,.&.",
"' W ( X.X.{ Y S v f f f 6 a 4   @ G Y ( { W { ( X.X.Y { S f x v a O ( -.+.X.R S v x x O * ~ ] } ( I H G G x f f f @ a +.>.;.&.O.",
"W W R ( } ( S x x f f f 6 a 6   @ v G I R I ( } ' } } G x x S f a O W { o.X.R S v v x O * ~ ] +.O.' R S v x v x f @ a +.>.-.X.{ ",
"W R Y I R I S x v S G S f f 6 X < f v G G G H ( ( S H Y S S f f a O W _ ' { H v x v f O * ~ X.O.*.o.( G v S G x f @ a +.-.-.*.} ",
"W ( ' I S G S v x S G S x f 4 X 1 2 6 a a a a f f a a f a a a a 4 O W { { S v S v x f O * ~ o.O.+.o.} ( I v S v f @ a +.-.-.o.R ",
"{ { W Y I S v x f v v v x f 4 X u 1 < O . . . . O O O . . . . . . O ( } W G x x x f f O * ~ $.*.O.{ ( ( W Y S x f @ a O.,.O.( W ",
"R ( W I H G G v f f a f f x 4 X = 3 g f f f f f x x x f f a a 6 & 1 ( ( Y S f f x f a O * ~ $.-.O.{ Y R ( R H S x @ 4 X.-.*.o.( ",
"I R I G S G H v a 6 6 a f f 4 X = 3 x S H R Y H R Y I G S v x a X 1 | } R G x f x f a O * ~ } +.X.O.W S I I S v f @ 4 X.-.X.' W ",
"I G v S S S G v a 6 6 6 a x 4 X = 3 v H W ( R R H G I S S H v a . 1 | X.Y R S x f f a O * ~ X.o.o.} ( G S v x x f @ 4 ' &.} W R ",
"Y Y v S S v v x f 6 a 6 a f 4 X = 3 v W Y H W W S H S x S R S x . 1 | X.( { H v x f a O * ~ $.o.{ ( H x f x x f f @ 4 _ X.( W W ",
"I W Y G S S x f f a 6 6 a f 4 X = 3 v W I Y I I Y G G x x S v f . 1 | { } _ Y G v x f O * ~ *.X.{ _ G x f f x x f @ 4 _ } ( ( W ",
"Y W Y S v S S x f f f a f x 6 X = 3 v R W W G S v x v f f x x a . 1 | } W I H S v x f O * K O.{ _ Y G S x x x f f @ 4 R _ ( R Y ",
"- - - @ @ @ @ @ O O O O O @ O X = 3 v W R H v f f f f f v v v a . 1 Q _ I G v v x x f O * K X.' Y v S v f x f f f @ # > - - - - ",
"$ $ $ $ $ ; 4 4 a a x x f a 6 6 8 8 2 : - @ @ O O @ O @ @ @ @ O   1 U { H v v v f f f O * J R S v f v v x f f f f @ $ 9 a a a > ",
"= t J K ~ | { } X.o.O.O.O.o.X.} ] Q K D b b x x 7 $ $ $ $ $ $ $ $ 1 U _ H v v x f f f O * F H x x f f x f x f x x @ $ h v v v 0 ",
"= N O.*.-.;.-.-.$.+.*.*.+.O.$.*.O.O.$.O.W ( W R x + 1 0 8 d d h 1 1 U Y I S f f f f a O * t : - @ @ @ @ @ @ @ - @ . $ 0 f x v 0 ",
"= B +.*.&.+.+.$.+.&.*.+.{ o.&.*.+.O.X.{ ( S G v a . 1 f G H W S # 1 H H Y v x x f f f O % = $ o $ $ $ $ $ $ $ $ $ $ * 1 2 2 q 3 ",
"= C *.*.&.O.+.*.+.X.o.O.O.+.O.+.X.o._ W R S v f a . 1 x _ } { x . 1 D H S v v x f f f O % u C ^ ^ ^ ^ ^ ^ ^ ^ ^ ^ ^ ^ K J J J k ",
"= L *.+.+.O.$.&.o.( ( o.*.X.W _ ( W ( ( Y H v f 6 . 1 v o.+.{ v . 1 r 4 - : - @ @ @ @   * u ..;.;.;.*.*.$.+.$.*.*.$.+.+.$.$.X.c ",
"= L *.+.o.{ X.+.o.' ( { +.O.} { } W R ( W S x f a . 1 v X.{ R v . 1 j s f f f f f a 6 6 1 u  .*.&.*.&.O.+.&.+.O.O.} o.&.+.} ( a ",
"= L ;.+.} { o.o.} X.} X.X.X.O.&.>.} Y H H v f f a . 1 b ( G x a . 1 U } O.O.X.O.X.X.Y G ; *  .*.+.&.O.O.-.>.X.( { ( _ X.( Y R 6 ",
"= L ;.#.o.+.o.} { } o._ ( W ] &.<.' Y G H v x x a . 3 S R v f a . 1 Q o.+.X.( _ ( W v x O *  .*.&.+.o.+.*.*.W G I R W R H G H 6 ",
"= L *.*.&.o.{ X.+.{ _ G I ( _ { R Y Y R Y v x v a . 1 h a : : :   1 ' O.X.] Y G S v f f O *  .*.*.;.;.+.X.X.W H G W { R I G v : ",
"= L $.O.} { $.-.&.} W Y G Y o._ G I R I S x x v 6 . * * X X X X X 1 s x a a 6 6 : : : : . *  .-.+.<.3.;.o.o.} W R ( Y Y ( G f : ",
"= L $.o.{ O.2.5.*._ _ { I Y _ _ Y Y I I x x x f 6 . 1 k k k z z z l 4 4 4 : : : : : - - + *  .$.o.*.<.<.-.O.{ ( { R H R W S f : ",
"= L $.+.&.*.6.8.-.( ( X.W G S H I R Y v 6 6 a f 6 . 3 Q ] _ { X.{ } X.X.{ _ ' W Y I S v < *  .+.o.} O.&.X.( R W I I ( _ I v f : ",
"= L $.&.*.$.,.,.o.W Y _ I x x v S I H v a 6 6 f 6 . 3 Q { W R _ ( ' X.o.W W _ I S S v f O *  .$.o.o.{ R W Y ( ( Y R _ W S x f : ",
"= C $.+.&.+.o._ Y W R H S v x x x v v v f f a f 6 . 3 Q ( W W ( } X.} o.{ W R Y S v f f O *  .-.o._ W Y Y H I R ( W Y S x x f : ",
"= V +.&.+.o.W I R _ } _ R S x x v v v x x v f f 6 . e ' ( { X.X.( _ ( } X.X._ R H v f x O *  .$.O.} W I G S v H R H v f f x x : ",
"= L $.+.*.} R ( ( I } } W G v x v G S x x f f f a . 3 ' { ( { ( W H Y ( } } ( Y G x x f O *  .*.&.+.} R H x f v S x f a 6 a f : ",
"= L +.O.O.' W Y S S R } { R v x x G G S f x f x 6 . 3 E ( { W R _ I I W W W Y G v x f a O *  .*.o.X.W I R S f x v x f a 6 6 a : ",
"= C O._ I Y W Y G G S R R I v v v S H S f f v f 6 . 3 Q { W H G H H S G H I G S x f f f O * / X.X.( o.' H G v v x x x f a a a : ",
"= C O.W S S G H R S H H x x f f x x S v f f x x 6 . 3 I _ ] H S S v S S S S v v f x x f O * / +.X.Y R I S S x f f f f f x x f : ",
"= N o.( Y G S S x x x v v x v x v f f f f f f f 6 . 3 I W Y G S v v v x f v f f x x f f O * ~ W R I I R H S x f f f f f f f f : ",
"u B ] Y I R I S S S S S v x v x v x x x x x x x f X 3 H H S S S S S S v x v x x x v v v e u ! ( I I H S S v x x x x x x x x x 0 ",
"p Z H H G H H G G G G G G G G G G G G G G G G G n p i D G G G G G G G G G G G G G G G G A p J H H H G G G G G G G G G G G G G l "
};
