/* XPM */
static char *d4a62c98586044a7d8b0562d905639a8rjJe4sTAhKhT0n62[] = {
/* columns rows colors chars-per-pixel */
"64 63 37 1 ",
"  c gray49",
". c #5B5B5B",
"X c gray3",
"o c #909090",
"O c #626262",
"+ c #686868",
"@ c #343434",
"# c #A0A0A0",
"$ c gray11",
"% c gray33",
"& c gray47",
"* c #979797",
"= c #131313",
"- c gray17",
"; c gray26",
": c #3C3C3C",
"> c #B1B1B1",
", c #A9A9A9",
"< c #898989",
"1 c gray45",
"2 c #232323",
"3 c gray43",
"4 c gray51",
"5 c #484848",
"6 c gray80",
"7 c #C6C6C6",
"8 c gray94",
"9 c #B9B9B9",
"0 c #4E4E4E",
"q c LightGray",
"w c #C0C0C0",
"e c gray87",
"r c #E9E9E9",
"t c #D8D8D8",
"y c gray89",
"u c #F6F6F6",
"i c gray99",
/* pixels */
"*O;00o77w*4#o*<>ri8qirqey88uuyuuuui8rr8ty888u88ruqy8eeeqq69*1%O<",
" @=$2 >9wo+*o<<>yiu88q7te88u88u88u8yyyytyyr888888yr8eeqq69#&02@O",
"3-=$:o>96> #9,,wyuur6wq6yuuu8u8888reeeetttyrrrrrterreeq66wo+522%",
".$=$%o*#99#97w#,qq>oo,>tuuiuuu8rrreettq67w7779>#4#>>o#9>>,&0:2$5",
".2=$51 o99*oo4O.1O0.&<>e8uuuuu88rytqqq69#<&+3+.5;.O33 #>#<.:--25",
"5==2:03*>,<10-2====-:O,76ruuu8rretq67w>oO;2222$22--@Oo#o<3;2=$$@",
":XX$@. #>#o3@$==X===$5<>7er8u8yeq666w>*&5-$$$=$2$2-@%4o&&1O:$==@",
":XX$:O *>,*&@$$=====$@+*96tyyytq667w9,o3;--22$222-:0O&4<< 3.@$=-",
";XX@.+4*#,>#1;-2==$22@0+o>w6qq6766w>>#4.%%0:@22-@:0.31&++O.%:2=-",
"@X=@%.34*,>>*O;5@--@@;50&*>w6q7w7679,*4..O%;;5.++..+& 1.0;:;@2$2",
"2X=-@@:03*97>o+31O..%%0%1o,967www669*o&O..%3o>># O.3o*4.:-2-22$$",
"2X=$$$2@0&*,o1%03<41O.0%3<,97q67667>*<O05%&,9,oo1..14O5@-2$$$$$$",
"2X===$$$-53o .050.%...5;%3*9qyeq6qq9oO;@;+o<*,##<3.+15$=======$$",
"2XX=====$:&*&0.O.05@-:@@;O<wy8retye9&;@@%+.3#7w>>*13O;$=XXX====$",
"2XX==XX=25+3:2-:5.O:2222@.<wy88yyre,O@-:OO+<#,<1+%;5%@$=XXXX==$2",
"2XXXXX=$$$$-O;@1$2@;5@==$519eu8yerqo5-2:+ 430;;-4;-5-====XXX=$-@",
"2XXXXXXX$@$=@22;-O%-@0:2$:+>tu8etew 5-;1* 5-%o*:52$-XX=XXXXX=$--",
"2XXXXXX$+>OXXXXX5674%;%.@:3*wye6q6,35@O,*O0&9u8.XXXXX5+2XXXXX=2-",
"2XXXXXX$&e7+=XX@,r7#oO0+;5&<,6q76w*+;@+#%0*,9eu9:XX=%*4-XXXXXX=2",
"2XXXXXX20*w>&.@O>>o4< OO:0&&ow6w,* .;@%43&,#,w773220o<O-=XXX=$2@",
"-==$==$-:+4o#<&&4<4+O.O%:%+3o>9*4o30:@@03..&4  4%;5O&%:2===$@@;.",
";--@2$2-;3   1&3+.5;0..5;.O&*>,<o#&%;@-@%+.0;:;0;;;5%;-$==$@50%3",
".OO5@-$$-;.+3&+5@2:&<O%..OO&*,,#,#4O0:@-:1#4.-$22----2==$-;.++31",
"1 <43.5@-22-@@--01oo&+O+OO+&o*#,,* O0;:@:5<>,4%@$===$---@5.+&&&1",
"&<**<3O.00::0.O&*,*1+3++O+3 o*#,#<&O%;::::.<,># O5:@@5%%+1& 4<  ",
" *#* O%0%O34#,>>#4 & 3O+113&4*###<3.%;:::;%1 <#,,*o< 113& 4o**< ",
" *,#<3...0%+&4o*o<4  3+31O. o#,,#o&.5;;5;5.&  &1& &1O%00.+&o#,*<",
"&o,9,#oo4+O1 <#>>#o41+33+.3o,>>,#o<+5;;%%%O&<*<+..O.%%O+3&<#,,#o",
"&o>w767w>##,,>w679,oo4&3+1*,9999>,*10;;%O1 <*,,*  <<oo***#,>9,#4",
"1o>7tttq777776qeeq79#<&+.4,9w7www9, 0@@5+<#99w9>##,,>>>>9>977>*3",
" *>6tttettttey888yt9*4&OOo>7qq6ww9,<%@@03<>qtqw*,ww9999ww777w>o+",
"4#96errrrrr88uu8yt><13+O1#9qeyt67w> %@@;%O49w67,966666766qq69,o3",
"o,wty8uuuiiiu8rt7,4O..+&o,6r88yeye7<%5:::@5&#6tqtettteeeeeetw,o&",
"o>wqey8iiiiiurtw,<1+144*,weuiu8r88t,3OO.5::54wqtteeeeyyrrrre7>* ",
"<,97tyuiiiiuyq9,* 3 *>977q8iii88uur6#oo<3%;@.*wqttettyr888req9* ",
"4#>7qy8uiu8yqw#o<&+<#,7qqqriiu8r8reeeq69,&5@;O#qtttqqer888req9o&",
"4#>w6tr8ryt69,o4 O0.O+&o*#9qyytq7,o#9>#<o 5-@: wqtq66trrrryt7><1",
"4*,>w6tet679#<111.-2$==2:O *>w9>oO;;;@22@;-22$0#66766qteeet7># 1",
" 4o#9w766w9, .%O<o%$XXXX$:0+o#*4.@2$=XXX==$--2:4>ww776qq667>*431",
" 1&o#,,>>#* 0@-:+*o+@$$-5+O;5%0:2$$$=XXXX=;1+;51*>>>>>977w>* +O3",
" 1+1<ooo<1O;2$$-;O& 3.O+ ,>4:2$==203&O5;%&oo +55.&*###>99,*<1.O1",
" 3..3 &1O5-$==$-:0.3&  4#6tw4%;-2@O##< <oo<+%;@2-;.1<o#,,* 1O0. ",
" 1%:%O.0@$=XX$-:0O+++&&<>eyqw>>*<4o9wo&4<1O.5::2==$@%3&<*o1O.;. ",
"  %@:5;-$XXX=2@:5.O+3&4*7ye6ww669,,7q>< &+..O...0@$=-5%+13.0;;O ",
"  .@-@-$XXX=2-@:;0%.31<#6yt7ww7w>##96w#41O0%...3&+;$=2@505:@-53 ",
"  +:-@2=XXX=-@:;;50O3 o>qeq7wwww>##>ww>*1+.O.00%..0@==2::-22$0  ",
"  15@@2$$X=2@:;5;0.1<o,7tyt799ww9,,9w79#4&OO%5;@--@-=X=-@-$$$%  ",
"   %:5::@$$$2@@:0.1<*,97tee67ww7w9w66q7>*43%05:-$$$=XX$2--$$-O  ",
"   O%+++0@5@$$$-:5O1 <*>wqeqq6ww999766w>#<&.0;@2==X=-$2@:@22;1  ",
"   &3<*o431+;2X=$2-:;03<*>w6w>**<oo*#,#43.5@@2$=XX=-%:;.0:--%  &",
"    &4*##<4 +02XX=$-@@5.1<o*<+...O%%0.%5:-2$==XXX2:5.0.1O;@5+   ",
"     4#,#*oo< %-=X$;%:-@;0%%.;@:::@@@@-22$$$=XX=-;.O3&4<10;.&   ",
"     4o###*#*<&%@2-&7w>w#4o 1.0O+OOOo,&+1.@-$=2:00%+ o*<1.5.    ",
"      4<*#*#*o<+5::.owtureyet7w6qqqqyr7>#3;:::;0..+&o**41.0+    ",
"     114o*oo##o3.;;0+ <9y8iiiiiiiiiurq>#o O0%.%.+14<<oo&O5%&    ",
"     &3&4<4<#,o1+%;0O 4#96yr88888re6w>,#o1O%%.O+&4o4 4 O05O     ",
"      3+113&*##o3.%5%&*96qttteeett676t6#4.%%.O& 4o<++ &0:53     ",
"      1+O++34o#*&O...O<7ru88yetqqqqy88w +O..O3 <<o&O1 +;:.      ",
"       +%..O3<##<+.O+& #7y88retq666t6w#&+O..O3 oo<+.3+0@;+      ",
"       30550+<#,#4OO3 4<<<o#,,#o<41&<*431+O+3&4<<4+%%0:@%&     &",
"       &O;:;O<#>,*1O+&4 1OO+&1+%%%..+1133++14<<<< +0:@@;+       ",
"        &%:;. *,,,<++1& &+0505;:;;0..O+OO+&<oooo<&O;--@O        ",
"         O::.&o#,,*4&+O+++.5::@@@@;050%.3&<*oo<o43%:-251        "
};
