/* XPM */
static char *a709826ffbd0455d95d1e494fdc4a12er04TJeCnNvUYiPL6[] = {
/* columns rows colors chars-per-pixel */
"126 124 19 1 ",
"  c black",
". c #00023D",
"X c #202020",
"o c #2C2C2C",
"O c gray22",
"+ c #000349",
"@ c #000454",
"# c #000660",
"$ c #00076B",
"% c #000977",
"& c #000B82",
"* c #000D92",
"= c #000F9D",
"- c #0011A9",
"; c #0013B4",
": c #0017CB",
"> c #001EF2",
", c #2031F2",
"< c #4047F2",
/* pixels */
"X******************************************&&&&&&%%$$$$  XX****************&&%%%%%%%%  XX****************%%%%##@@  ========&& ",
"X******************************************&&&&&&%%$$$$  XX****************&&%%%%%%%%  XX****************%%%%##@@  ========&& ",
"X******%%**$$****&&$$&&&&$$&&&&&&$$$$**%%$$$$$$$$##@@++  XX****&&&&%%****&&%%%%%%%%++  XX**--==--==----------&&$$  ====%%&&%% ",
"X******%%**$$****&&$$&&&&$$&&&&&&$$$$**%%$$$$$$$$##@@++  XX****&&&&%%****&&%%%%%%%%++  XX**--==--==----------&&$$  ====%%&&%% ",
"X**&&$$%%&&&&&&$$$$**&&**@@&&&&@@%%$$$$&&&&$$$$##@@@@++  XX**&&****%%&&&&$$%%$$**##++  XX**==----**--;;==--**&&$$  ****==&&++ ",
"X**&&$$%%&&&&&&$$$$**&&**@@&&&&@@%%$$$$&&&&$$$$##@@@@++  XX**&&****%%&&&&$$%%$$**##++  XX**==----**--;;==--**&&$$  ****==&&++ ",
"X**%%**##&&##&&$$$$$$&&%%%%$$@@%%##&&@@$$##@@@@++++++@@  XX**&&%%%%&&&&$$%%$$##++@@++  XX**--==**;;--==**&&%%%%##  %%##$$$$++ ",
"X**%%**##&&##&&$$$$$$&&%%%%$$@@%%##&&@@$$##@@@@++++++@@  XX**&&%%%%&&&&$$%%$$##++@@++  XX**--==**;;--==**&&%%%%##  %%##$$$$++ ",
"X**%%$$******@@$$$$$$**&&&&&&%%%%$$##@@$$$$$$####@@++@@  XX****%%****$$######%%@@++++  XX**--**;;,,;;**--**&&##$$  &&%%##@@++ ",
"X**%%$$******@@$$$$$$**&&&&&&%%%%$$##@@$$$$$$####@@++@@  XX****%%****$$######%%@@++++  XX**--**;;,,;;**--**&&##$$  &&%%##@@++ ",
"X**&&&&====******&&******&&&&##%%++$$@@$$$$$$$$##++++++  XX******%%%%$$##%%%%%%##@@++  XX**==--**----****==$$$$##  &&$$++++++ ",
"X**&&&&====******&&******&&&&##%%++$$@@$$$$$$$$##++++++  XX******%%%%$$##%%%%%%##@@++  XX**==--**----****==$$$$##  &&$$++++++ ",
"X****&&**====**&&$$@@****&&%%%%$$######@@$$$$##@@++@@@@  XX****%%$$%%%%%%$$%%$$@@++++  XX**==--==**======**$$##$$  &&@@++@@++ ",
"X****&&**====**&&$$@@****&&%%%%$$######@@$$$$##@@++@@@@  XX****%%$$%%%%%%$$%%$$@@++++  XX**==--==**======**$$##$$  &&@@++@@++ ",
"X**&&$$&&****%%&&$$&&####%%%%%%@@@@$$%%++######@@@@++++  XX**&&%%%%##%%****$$##$$++@@  XX**==;;====%%%%****&&##@@             ",
"X**&&$$&&****%%&&$$&&####%%%%%%@@@@$$%%++######@@@@++++  XX**&&%%%%##%%****$$##$$++@@  XX**==;;====%%%%****&&##@@             ",
"X**%%%%%%**$$$$$$****##++@@++##++%%##$$##@@####@@++++++  XX**%%%%##$$$$%%%%##@@++@@++  XX**==--**==%%%%%%&&%%@@++  &&======** ",
"X**%%%%%%**$$$$$$****##++@@++##++%%##$$##@@####@@++++++  XX**%%%%##$$$$%%%%##@@++@@++  XX**==--**==%%%%%%&&%%@@++  &&======** ",
"X&&$$%%**%%%%##&&****####++++++##@@$$##@@##$$$$##++@@++  XX&&%%$$####%%%%##$$@@++@@++  XX**==----**%%%%%%%%$$@@@@  **==&&==%% ",
"X&&$$%%**%%%%##&&****####++++++##@@$$##@@##$$$$##++@@++  XX&&%%$$####%%%%##$$@@++@@++  XX**==----**%%%%%%%%$$@@@@  **==&&==%% ",
"X&&%%&&$$$$**%%@@$$++$$++++++++@@@@%%....++$$$$$$++++++  XX&&%%$$######%%++##++##++++  XX**==----==**%%%%&&$$@@@@  &&**%%&&@@ ",
"X&&%%&&$$$$**%%@@$$++$$++++++++@@@@%%....++$$$$$$++++++  XX&&%%$$######%%++##++##++++  XX**==----==**%%%%&&$$@@@@  &&**%%&&@@ ",
"X&&$$&&$$@@%%%%$$@@$$@@$$@@++##++##++......++####++@@++  XX&&$$%%####@@@@##@@++@@@@++  XX**==----**&&&&$$%%##++++  &&**&&##++ ",
"X&&$$&&$$@@%%%%$$@@$$@@$$@@++##++##++......++####++@@++  XX&&$$%%####@@@@##@@++@@@@++  XX**==----**&&&&$$%%##++++  &&**&&##++ ",
"X&&&&$$$$$$##@@++++@@$$@@##@@@@++++++++....++++++++++++  XX%%%%####@@++++++++@@++@@++  XX**==**--%%&&%%&&$$$$++@@  %%%%$$@@## ",
"X&&&&$$$$$$##@@++++@@$$@@##@@@@++++++++....++++++++++++  XX%%%%####@@++++++++@@++@@++  XX**==**--%%&&%%&&$$$$++@@  %%%%$$@@## ",
"X&&$$&&@@@@##@@$$@@##++++@@++@@@@@@@@++++++++++++++++++  XX%%@@%%@@@@++++++++++++++++  XX&&--==----%%**%%##@@++++  $$##@@++++ ",
"X&&$$&&@@@@##@@$$@@##++++@@++@@@@@@@@++++++++++++++++++  XX%%@@%%@@@@++++++++++++++++  XX&&--==----%%**%%##@@++++  $$##@@++++ ",
"X                                                        XX                            XX&&--==**&&&&%%%%@@++@@++             ",
"X                                                        XX                            XX&&--==**&&&&%%%%@@++@@++             ",
"*--==**==**********==********XXXXXXXXXXXXXXXXXXXXXXXXXXXXXXXXXXXXXXXXXXXXXXXXXXXXXXXXXXXX&&==--&&--$$&&$$$$@@++++  ##;;;;;;;;;",
"*--==**==**********==********XXXXXXXXXXXXXXXXXXXXXXXXXXXXXXXXXXXXXXXXXXXXXXXXXXXXXXXXXXXX&&==--&&--$$&&$$$$@@++++  ##;;;;;;;;;",
"-==**&&**--==**%%****$$**&&$$  XXXX@@$$&&$$&&&&****$$$$++++....XXXXXX++##&&&&**%%$$####XX&&--==--&&&&;;&&$$##@@++  %%;;;;::--;",
"-==**&&**--==**%%****$$**&&$$  XXXX@@$$&&$$&&&&****$$$$++++....XXXXXX++##&&&&**%%$$####XX&&--==--&&&&;;&&$$##@@++  %%;;;;::--;",
"-==&&&&%%****%%$$&&&&$$$$&&&&  XX@@$$&&&&&&&&**==****%%@@####@@++XXXX##&&**$$%%$$%%$$@@  &&&&**==--&&&&$$$$##++@@  **;;::>>::=",
"-==&&&&%%****%%$$&&&&$$$$&&&&  XX@@$$&&&&&&&&**==****%%@@####@@++XXXX##&&**$$%%$$%%$$@@  &&&&**==--&&&&$$$$##++@@  **;;::>>::=",
"=**&&====&&&&$$$$$$&&$$$$$$$$  XX&&&&&&==**====$$%%&&@@##@@++@@##XXXX$$**$$##@@$$@@++$$  %%====--==&&%%$$@@++@@@@  **;;;;::==;",
"=**&&====&&&&$$$$$$&&$$$$$$$$  XX&&&&&&==**====$$%%&&@@##@@++@@##XXXX$$**$$##@@$$@@++$$  %%====--==&&%%$$@@++@@@@  **;;;;::==;",
"*%%&&==--==$$$$&&&&$$&&++$$$$  ..==&&==%%==**$$++##$$##++++@@##$$  XX%%%%**$$####++##@@  %%--====####%%$$##@@@@++  ==;;;;==**=",
"*%%&&==--==$$$$&&&&$$&&++$$$$  ..==&&==%%==**$$++##$$##++++@@##$$  XX%%%%**$$####++##@@  %%--====####%%$$##@@@@++  ==;;;;==**=",
"***%%&&====$$&&$$$$@@@@##$$$$  ..****====**==&&##$$##++@@@@@@++##  XX##**%%%%@@++$$++++  $$******######$$##++++++  --;;;;==;;*",
"***%%&&====$$&&$$$$@@@@##$$$$  ..****====**==&&##$$##++@@@@@@++##  XX##**%%%%@@++$$++++  $$******######$$##++++++  --;;;;==;;*",
"=%%$$%%&&**&&$$$$&&@@##$$++++  ++**====**;;&&%%$$##@@@@@@++####++  XX####@@++++@@++@@@@  $$&&****%%######@@++++++  ==;;==--==*",
"=%%$$%%&&**&&$$$$&&@@##$$++++  ++**====**;;&&%%$$##@@@@@@++####++  XX####@@++++@@++@@@@  $$&&****%%######@@++++++  ==;;==--==*",
"=**%%&&$$&&$$&&&&$$##$$@@$$++  ##&&****%%$$%%%%####$$##@@##++++##  XXXX                  $$&&&&--$$$$######++@@++  ==;;==**&&-",
"=**%%&&$$&&$$&&&&$$##$$@@$$++  ##&&****%%$$%%%%####$$##@@##++++##  XXXX                  $$&&&&--$$$$######++@@++  ==;;==**&&-",
"===&&%%==&&&&&&&&$$$$##++++++  ##&&**%%$$&&%%##++####&&##$$##$$##  ****----****&&&&%%  XX&&&&**&&&&$$####++@@++++  **;;;;==;;;",
"===&&%%==&&&&&&&&$$$$##++++++  ##&&**%%$$&&%%##++####&&##$$##$$##  ****----****&&&&%%  XX&&&&**&&&&$$####++@@++++  **;;;;==;;;",
"=**%%$$%%====@@$$&&%%%%##++@@  ##&&%%$$==**&&$$##$$%%;;==%%##@@##  **----**&&%%##%%$$  XX&&--==**&&$$$$##@@@@@@++  **;;==;;--=",
"=**%%$$%%====@@$$&&%%%%##++@@  ##&&%%$$==**&&$$##$$%%;;==%%##@@##  **----**&&%%##%%$$  XX&&--==**&&$$$$##@@@@@@++  **;;==;;--=",
"*&&$$%%**====**&&$$%%%%##++@@  ++%%%%$$&&==&&&&%%%%&&==%%$$$$##$$  **&&****%%##**##@@  XX**--==--**&&%%##@@++@@@@  **;;;;;;==*",
"*&&$$%%**====**&&$$%%%%##++@@  ++%%%%$$&&==&&&&%%%%&&==%%$$$$##$$  **&&****%%##**##@@  XX**--==--**&&%%##@@++@@@@  **;;;;;;==*",
"=&&==&&&&**==**@@$$######++++  ..$$$$%%==<<==%%**&&$$&&%%##%%@@$$  ****&&$$%%**%%####  XX**==**--**&&$$##@@@@##++  %%;;;;;;===",
"=&&==&&&&**==**@@$$######++++  ..$$$$%%==<<==%%**&&$$&&%%##%%@@$$  ****&&$$%%**%%####  XX**==**--**&&$$##@@@@##++  %%;;;;;;===",
"*%%%%****&&****@@##++@@++++++  ..$$$$%%&&==****&&****%%&&$$++$$++  ******&&**####%%##  XX****&&**%%&&%%$$++++++@@  %%;;==;;;;*",
"*%%%%****&&****@@##++@@++++++  ..$$$$%%&&==****&&****%%&&$$++$$++  ******&&**####%%##  XX****&&**%%&&%%$$++++++@@  %%;;==;;;;*",
"*&&%%******&&$$##@@++@@....++    $$%%&&**%%**%%**==##==##++@@##++  **;;==**%%##@@@@@@  XX**&&**%%$$$$$$$$++++++++  %%;;;;--===",
"*&&%%******&&$$##@@++@@....++    $$%%&&**%%**%%**==##==##++@@##++  **;;==**%%##@@@@@@  XX**&&**%%$$$$$$$$++++++++  %%;;;;--===",
"&%%&&%%****$$@@@@++++++....@@    @@$$$$&&$$&&**&&**==##++@@$$++++  **&&==**%%######@@  XX**&&--**&&%%####++##++++  %%;;;;==&&*",
"&%%&&%%****$$@@@@++++++....@@    @@$$$$&&$$&&**&&**==##++@@$$++++  **&&==**%%######@@  XX**&&--**&&%%####++##++++  %%;;;;==&&*",
"&%%%%$$%%%%$$@@@@##$$$$@@++@@  XX++@@$$$$$$$$&&**##$$&&##$$++++++  **&&&&**$$@@@@##++  XX****==--**%%##@@$$$$++++  %%;;==;;==&",
"&%%%%$$%%%%$$@@@@##$$$$@@++@@  XX++@@$$$$$$$$&&**##$$&&##$$++++++  **&&&&**$$@@@@##++  XX****==--**%%##@@$$$$++++  %%;;==;;==&",
"&%%**&&##$$$$##@@##$$$$@@++++  XXXX..++++++++++++++++++++++++++..  **&&**@@##$$##@@++  XX****====****&&$$@@$$@@++  %%;;==;;%%%",
"&%%**&&##$$$$##@@##$$$$@@++++  XXXX..++++++++++++++++++++++++++..  **&&**@@##$$##@@++  XX****====****&&$$@@$$@@++  %%;;==;;%%%",
"&**&&%%%%$$@@@@++@@####@@++++  XXXXXX                              ****%%$$@@@@@@++++  XX**----**&&&&&&&&%%@@++++  %%;;;;%%&&%",
"&**&&%%%%$$@@@@++@@####@@++++  XXXXXX                              ****%%$$@@@@@@++++  XX**----**&&&&&&&&%%@@++++  %%;;;;%%&&%",
"$&&&&%%$$$$$$$$++@@..++++@@++  XXXX@@@@@@@@@@@@######@@@@@@@@++XXXX**%%%%##++++@@++++  XX**----**&&$$&&&&%%$$##++  ##;;==;;&&&",
"$&&&&%%$$$$$$$$++@@..++++@@++  XXXX@@@@@@@@@@@@######@@@@@@@@++XXXX**%%%%##++++@@++++  XX**----**&&$$&&&&%%$$##++  ##;;==;;&&&",
"$%%%%$$##$$$$$$++......++++++  XXXX@@##$$&&&&$$&&%%%%$$$$@@@@++  XX****%%$$@@++@@++++  XX**&&--&&--$$##%%$$##@@++  ##;;==&&&&%",
"$%%%%$$##$$$$$$++......++++++  XXXX@@##$$&&&&$$&&%%%%$$$$@@@@++  XX****%%$$@@++@@++++  XX**&&--&&--$$##%%$$##@@++  ##;;==&&&&%",
"$%%@@##$$@@$$$$++........@@++  XXXX@@$$&&&&%%&&$$##%%####%%##++  XX****$$&&##@@++++++  XX******==&&&&####@@@@@@++  ##====&&%%%",
"$%%@@##$$@@$$$$++........@@++  XXXX@@$$&&&&%%&&$$##%%####%%##++  XX****$$&&##@@++++++  XX******==&&&&####@@@@@@++  ##====&&%%%",
"$&&$$@@$$@@##++@@..++....++++  XXXX@@&&%%##&&&&##%%##++##&&####  XX****&&**$$##@@++++  XX**--**&&&&##++++##++++++  ##==&&%%&&%",
"$&&$$@@$$@@##++@@..++....++++  XXXX@@&&%%##&&&&##%%##++##&&####  XX****&&**$$##@@++++  XX**--**&&&&##++++##++++++  ##==&&%%&&%",
"$%%&&%%##$$##++++++......++++  XXXX@@&&$$&&$$$$&&##%%@@++####++  XX**&&**&&%%$$##@@@@  XX**--&&**&&##@@++++##++++  ##==&&&&&&%",
"$%%&&%%##$$##++++++......++++  XXXX@@&&$$&&$$$$&&##%%@@++####++  XX**&&**&&%%$$##@@@@  XX**--&&**&&##@@++++##++++  ##==&&&&&&%",
"$&&%%$$@@##$$##++++@@++++@@@@  XXXX@@%%&&&&$$##@@++@@++++@@++++  XX****%%$$$$##@@@@++  XX&&==&&&&$$$$##@@@@++++++  ##&&&&&&$$&",
"$&&%%$$@@##$$##++++@@++++@@@@  XXXX@@%%&&&&$$##@@++@@++++@@++++  XX****%%$$$$##@@@@++  XX&&==&&&&$$$$##@@@@++++++  ##&&&&&&$$&",
"                               XXXX@@&&%%$$@@++++@@++++######++  XX&&&&$$$$@@##++@@++  XX&&**&&$$++$$++++@@++++++  XX         ",
"                               XXXX@@&&%%$$@@++++@@++++######++  XX&&&&$$$$@@##++@@++  XX&&**&&$$++$$++++@@++++++  XX         ",
"XXXXXXXXXXX++++####%%%%%%$$##@@++++XX                            XX&&**$$@@####++++@@  XX%%$$++@@++####@@++++++++  XX########X",
"XXXXXXXXXXX++++####%%%%%%$$##@@++++XX                            XX&&**$$@@####++++@@  XX%%$$++@@++####@@++++++++  XX########X",
"XXX&&**==------------------------======****&&&&$$XXXXXXXXXXXXXXXXXX&&&&$$##@@++++++++  XX%%$$@@@@++++++++@@++##++  XX##++$$++X",
"XXX&&**==------------------------======****&&&&$$XXXXXXXXXXXXXXXXXX&&&&$$##@@++++++++  XX%%$$@@@@++++++++@@++##++  XX##++$$++X",
"XXX**----------==**==--******--****====$$%%%%%%@@  XX++++@@@@##XXXX&&$$%%##++++++++++  XXXX                        XX++++++##X",
"XXX**----------==**==--******--****====$$%%%%%%@@  XX++++@@@@##XXXX&&$$%%##++++++++++  XXXX                        XX++++++##X",
"XXX**--====**====------&&**------==**%%==@@$$++@@  XX++&&%%==$$  XX%%$$%%@@##@@++@@@@  XXXXXXXXXXXXXXXXXXXXXXXXXXXXXXXXXXXXXXX",
"XXX**--====**====------&&**------==**%%==@@$$++@@  XX++&&%%==$$  XX%%$$%%@@##@@++@@@@  XXXXXXXXXXXXXXXXXXXXXXXXXXXXXXXXXXXXXXX",
"XXX------====----&&&&**----&&==%%**&&&&$$%%@@++@@  XX++**==&&++  XX$$$$@@##@@++++++++  XXXX--------------------------======**X",
"XXX------====----&&&&**----&&==%%**&&&&$$%%@@++@@  XX++**==&&++  XX$$$$@@##@@++++++++  XXXX--------------------------======**X",
"XXX--**==**======&&&&&&--**%%%%**$$&&&&&&$$##++++  XX@@====**%%  XXXX                  XXXX--------====****======****==--**%% ",
"XXX--**==**======&&&&&&--**%%%%**$$&&&&&&$$##++++  XX@@====**%%  XXXX                  XXXX--------====****======****==--**%% ",
"XXX----==&&%%====**&&&&**----******$$&&&&$$++++@@  XX@@**%%##++  XX%%&&**==******&&%%%%XXXX--====--==**;;;;**==**&&----&&&&%% ",
"XXX----==&&%%====**&&&&**----******$$&&&&$$++++@@  XX@@**%%##++  XX%%&&**==******&&%%%%XXXX--====--==**;;;;**==**&&----&&&&%% ",
"XXX----&&**--==%%**======$$****>>**&&@@##@@++@@++  XX##&&##++++  XX&&**==**&&==&&==####  XX----====**----;;$$$$&&%%$$&&##%%$$ ",
"XXX----&&**--==%%**======$$****>>**&&@@##@@++@@++  XX##&&##++++  XX&&**==**&&==&&==####  XX----====**----;;$$$$&&%%$$&&##%%$$ ",
"XXX--------**%%--%%==$$$$**%%****&&$$&&&&$$@@@@@@  XX##%%@@++@@  XX**====**%%$$%%##++@@  XX--==--==**====**$$$$$$&&**$$$$$$## ",
"XXX--------**%%--%%==$$$$**%%****&&$$&&&&$$@@@@@@  XX##%%@@++@@  XX**====**%%$$%%##++@@  XX--==--==**====**$$$$$$&&**$$$$$$## ",
"XXX--**--&&****--==&&$$$$$$****##$$&&$$$$@@++$$++  XXXX          XX&&**%%%%$$##++@@++++  XX----==::::**&&**&&$$$$**%%%%&&@@++ ",
"XXX--**--&&****--==&&$$$$$$****##$$&&$$$$@@++$$++  XXXX          XX&&**%%%%$$##++@@++++  XX----==::::**&&**&&$$$$**%%%%&&@@++ ",
"XXX--==&&&&--::--**%%**$$$$****%%%%$$&&####@@++++  XXXXXXXXXXXXXXXX                      XX--==**::::;;--==**&&==$$##&&&&@@++ ",
"XXX--==&&&&--::--**%%**$$$$****%%%%$$&&####@@++++  XXXXXXXXXXXXXXXX                      XX--==**::::;;--==**&&==$$##&&&&@@++ ",
"XXX--**--**::<<::&&&&**&&%%$$%%%%%%%%$$....++@@++  XX&&&&&&**************&&&&&&%%%%####XXXX--==**&&;;;;**&&$$&&$$%%&&&&$$@@++ ",
"XXX--**--**::<<::&&&&**&&%%$$%%%%%%%%$$....++@@++  XX&&&&&&**************&&&&&&%%%%####XXXX--==**&&;;;;**&&$$&&$$%%&&&&$$@@++ ",
"XXX--==--==--::--**$$****@@@@@@$$%%%%##......++++  XX&&**&&%%**%%&&****%%&&**$$$$####++  XX--****==&&%%&&%%**%%$$%%**%%##@@++ ",
"XXX--==--==--::--**$$****@@@@@@$$%%%%##......++++  XX&&**&&%%**%%&&****%%&&**$$$$####++  XX--****==&&%%&&%%**%%$$%%**%%##@@++ ",
"XXX--**--======%%%%%%$$##@@@@@@@@######++....++++  XX&&&&%%%%%%******==&&%%%%%%@@##++++  XX----**&&&&%%%%$$%%&&&&&&%%##@@++++ ",
"XXX--**--======%%%%%%$$##@@@@@@@@######++....++++  XX&&&&%%%%%%******==&&%%%%%%@@##++++  XX----**&&&&%%%%$$%%&&&&&&%%##@@++++ ",
"XXX**--====**$$$$&&**&&&&$$@@@@@@@@##@@++$$++++++  XX**%%****==&&**&&******&&%%$$##++@@  XX--==**&&$$$$$$##$$%%&&$$@@++@@##++ ",
"XXX**--====**$$$$&&**&&&&$$@@@@@@@@##@@++$$++++++  XX**%%****==&&**&&******&&%%$$##++@@  XX--==**&&$$$$$$##$$%%&&$$@@++@@##++ ",
"XXX--**--==%%%%==$$****&&##$$++##$$$$++@@++++++@@  XX****%%**&&%%$$%%&&****&&%%$$++@@@@  XX--==--==**%%##++++$$##++++....@@++ ",
"XXX--**--==%%%%==$$****&&##$$++##$$$$++@@++++++@@  XX****%%**&&%%$$%%&&****&&%%$$++@@@@  XX--==--==**%%##++++$$##++++....@@++ ",
"XXX--**--**&&%%$$@@%%****&&##@@++$$$$$$++@@++@@++  XX&&%%**&&%%**$$%%&&&&&&%%$$##@@++++  XX----****$$$$&&++++@@##++++......++ ",
"XXX--**--**&&%%$$@@%%****&&##@@++$$$$$$++@@++@@++  XX&&%%**&&%%**$$%%&&&&&&%%$$##@@++++  XX----****$$$$&&++++@@##++++......++ ",
"XXX==**%%%%%%**@@%%@@%%&&&&####@@$$$$$$++++##++++  XX&&**%%$$$$$$%%##$$$$%%$$##@@++++++  XX==&&**&&--&&$$$$@@##++##++++....++ ",
"XXX==**%%%%%%**@@%%@@%%&&&&####@@$$$$$$++++##++++  XX&&**%%$$$$$$%%##$$$$%%$$##@@++++++  XX==&&**&&--&&$$$$@@##++##++++....++ ",
"XXX==**##@@%%@@**$$$$&&++@@++++@@++$$$$++++@@@@++  XX%%&&**$$##$$@@$$##$$######++@@@@++  XX==--**$$&&####$$++@@++++++@@@@@@++ ",
"XXX==**##@@%%@@**$$$$&&++@@++++@@++$$$$++++@@@@++  XX%%&&**$$##$$@@$$##$$######++@@@@++  XX==--**$$&&####$$++@@++++++@@@@@@++ ",
"XXX****%%%%@@%%++@@++@@##@@##@@##++++++++++++++++  XX%%&&%%$$##@@####@@++##++++@@@@++++  XX**$$&&$$%%&&$$##@@++@@++@@++++++++ ",
"XXX****%%%%@@%%++@@++@@##@@##@@##++++++++++++++++  XX%%&&%%$$##@@####@@++##++++@@@@++++  XX**$$&&$$%%&&$$##@@++@@++@@++++++++ ",
"XXX**&&$$%%&&############@@@@@@@@@@@@@@@@@@@@@@@@  XX%%$$############@@@@@@@@@@@@##@@##XXXX**&&$$%%$$####@@@@@@@@@@@@@@@@@@@@X",
"XXX**&&$$%%&&############@@@@@@@@@@@@@@@@@@@@@@@@  XX%%$$############@@@@@@@@@@@@##@@##XXXX**&&$$%%$$####@@@@@@@@@@@@@@@@@@@@X",
"OOO$$$$$$$$$$$$$$$$$$$$$$$$$$$$$$$$$$$$$$$$$$$$$$OOOO$$$$$$$$$$$$$$$$$$$$$$$$$$$$$$$$$$OOOO$$$$$$$$$$$$$$$$$$$$$$$$$$$$$$$$$$o",
"OOO$$$$$$$$$$$$$$$$$$$$$$$$$$$$$$$$$$$$$$$$$$$$$$OOOO$$$$$$$$$$$$$$$$$$$$$$$$$$$$$$$$$$OOOO$$$$$$$$$$$$$$$$$$$$$$$$$$$$$$$$$$o"
};
