/* XPM */
static char *result[] = {
/* columns rows colors chars-per-pixel */
"64 64 226 2 ",
"   c #27200F",
".  c #2E2514",
"X  c #352A15",
"o  c #352A16",
"O  c #362C18",
"+  c #3C2F18",
"@  c #3E301A",
"#  c #232323",
"$  c #2B2B2B",
"%  c #332F2B",
"&  c #343434",
"*  c #3A3A3A",
"=  c #5A0D07",
"-  c #51120B",
";  c #600E08",
":  c #67110A",
">  c #76150D",
",  c #7C160E",
"<  c #482916",
"1  c #532816",
"2  c #43341D",
"3  c #4A371F",
"4  c #46381D",
"5  c #4A3A1F",
"6  c #5A381D",
"7  c #6B2616",
"8  c #7C2D19",
"9  c #663E1D",
"0  c #443825",
"q  c #4D3B21",
"w  c #483F2B",
"e  c #523E22",
"r  c #583F24",
"t  c #763D25",
"y  c #5F421D",
"u  c #72471F",
"i  c #4B412D",
"p  c #564024",
"a  c #5A4326",
"s  c #564328",
"d  c #5C452A",
"f  c #4D4430",
"g  c #484439",
"h  c #4D493D",
"j  c #584835",
"k  c #5E4E3A",
"l  c #6A4327",
"z  c #624629",
"x  c #65492A",
"c  c #6B4C2D",
"v  c #734720",
"b  c #734D2E",
"n  c #6F542C",
"m  c #704F30",
"M  c #6A5239",
"N  c #745132",
"B  c #7B5534",
"V  c #7E5936",
"C  c #7A593D",
"Z  c #6D6326",
"A  c #76682A",
"S  c #444444",
"D  c #494745",
"F  c #4A4A4A",
"G  c #514D41",
"H  c #554B4A",
"J  c #5A5247",
"K  c #525253",
"L  c #5C5A59",
"P  c #61584C",
"I  c #755C45",
"U  c #75624F",
"Y  c #776554",
"T  c #656564",
"R  c #696865",
"E  c #6B6B6B",
"W  c #77706A",
"Q  c #78736E",
"!  c #737373",
"~  c #7A7773",
"^  c #7C7C7C",
"/  c #85170E",
"(  c #891C12",
")  c #932519",
"_  c #AC2A1D",
"`  c #89382A",
"'  c #93531F",
"]  c #895324",
"[  c #855823",
"{  c #8A592A",
"}  c #945420",
"|  c #935828",
" . c #855434",
".. c #815937",
"X. c #835B39",
"o. c #8A5E3B",
"O. c #9A5739",
"+. c #816E2F",
"@. c #986D29",
"#. c #826B30",
"$. c #8D613E",
"%. c #91623F",
"&. c #867131",
"*. c #A66723",
"=. c #AD6228",
"-. c #B76829",
";. c #BB692A",
":. c #A97627",
">. c #AD7826",
",. c #B77D2A",
"<. c #B77233",
"1. c #B87233",
"2. c #CA762E",
"3. c #8C5244",
"4. c #B6564D",
"5. c #8A6346",
"6. c #946441",
"7. c #996743",
"8. c #9C6945",
"9. c #93694B",
"0. c #907159",
"q. c #A16D47",
"w. c #A36E49",
"e. c #AF6F49",
"r. c #B46D49",
"t. c #A5714A",
"y. c #AB744C",
"u. c #AE784E",
"i. c #B1764F",
"p. c #B1794F",
"a. c #A77857",
"s. c #B47B52",
"d. c #B47B55",
"f. c #BB7E54",
"g. c #9B7B64",
"h. c #867772",
"j. c #A27D63",
"k. c #C96A55",
"l. c #8D862D",
"z. c #928B2F",
"x. c #958C30",
"c. c #9A8F32",
"v. c #908C3C",
"b. c #9D9033",
"n. c #A6842B",
"m. c #B6812A",
"M. c #BF892D",
"N. c #A29336",
"B. c #B19931",
"V. c #BC9832",
"C. c #CC892F",
"Z. c #CD8A30",
"A. c #C19A33",
"S. c #C99F35",
"D. c #DA9133",
"F. c #DC9B3C",
"G. c #C9A137",
"H. c #C9A439",
"J. c #C3AA38",
"K. c #CCB23B",
"L. c #D5BA3E",
"P. c #BE8056",
"I. c #B9825A",
"U. c #A9A657",
"Y. c #B9B55D",
"T. c #85837E",
"R. c #978E70",
"E. c #A5846C",
"W. c #B6896C",
"Q. c #A98B76",
"!. c #B48A71",
"~. c #BA8D72",
"^. c #A09F7C",
"/. c #B5927B",
"(. c #A7A67F",
"). c #C18157",
"_. c #C48459",
"`. c #C9865B",
"'. c #CC895D",
"]. c #D28C5E",
"[. c #C48A63",
"{. c #CB8C62",
"}. c #D48E60",
"|. c #D88F61",
" X c #CB9168",
".X c #D69467",
"XX c #DB9263",
"oX c #C69575",
"OX c #DC9E74",
"+X c #E59B69",
"@X c #E59F71",
"#X c #D6A27D",
"$X c #EDA06C",
"%X c #E6A477",
"&X c #EBA374",
"*X c #EDAA7D",
"=X c #F0AC7E",
"-X c #D2CC5B",
";X c #CAC463",
":X c #7F7F80",
">X c #838483",
",X c #8C8884",
"<X c #8B8B8B",
"1X c #928B86",
"2X c #9B918A",
"3X c #969695",
"4X c #9B9693",
"5X c #9B9896",
"6X c #97979A",
"7X c #979899",
"8X c #989898",
"9X c #AA9485",
"0X c #B7988E",
"qX c #AEAD82",
"wX c #9FA0A0",
"eX c #B5B3B1",
"rX c #D0A88D",
"tX c #E8AE85",
"yX c #ECB28A",
"uX c #F0B285",
"iX c #F1B48B",
"pX c #F1BA94",
"aX c #F1BA96",
"sX c #CEAFA8",
"dX c #F1C6A9",
"fX c #C6C6C6",
/* pixels */
"X.X.X.X...X.X...X.V ..X.X...X.X.X.X.X.X.X.X...#.X...X.....X.X.X.X.X.....X.X.X.X.....X.X...X.V X.X.X.X.X.X.X.X.X.X.X.X...X.....X.",
"a a a a a a e q e O 0 a a a a p p a a p a a a a r q e 2 @ q a a a q q 5 + q a r a s a p 5 p + 4 r p a p a a p a p a a 5 e 4 + e ",
"4 p z x c c d a x . r N p 5 4 4 5 x x q a q d q 4 q b 2 O c N r p a z a X a m e 5 4 5 e p c X q m e d q 4 z q z e d c p c q o z ",
"4 p c c c c a x b . a X.d 4 4 4 e c c q d 5 a e 4 q N q @ N B a a d c x X x X.z q 5 p x a N X e V p x q 4 x e x p d c a m e + c ",
"4 5 x c #.c.c.c.b.l.c.N.c.z.z.z.x.c.b.x.c.x.c.x.z.z.b.x.x.b.b.x.x.b.b.x.l.b.b.b.z.z.b.b.c.b.z.z.N.z.b.x.z.b.x.c.x.b.b.l.@.6 O c ",
"5 5 a c &.J.F.F.F.F.F.F.F.F.F.F.F.F.F.F.F.F.F.F.F.F.F.D.D.D.D.D.D.D.D.D.D.D.D.D.D.D.D.D.D.D.D.C.C.C.C.Z.C.C.Z.Z.C.Z.m.:.[ < + c ",
"q 4 p z &.H.2.{ { { { { { { { { { { { { { { { { { { { ] ] ] ] ] ] ] ] ] ] ] ] ] ] ] ] [ ] | { ] ] ] ] ] ] ] ] ] ] ] @.*.v o + c ",
"p 4 5 p A H.1.w g g g g g g g g g g g g g g g h g g g g g g h G G h G G G G G h G G G G G k J J J J P P P P P P P P v.:.v o + c ",
"a 5 4 5 A H.<.i L ! ! ! ! ~ ! ! ! ! ! ^ ! ! ~ ! ! ! ! ! ! ! ^ :X:X:X:X:X:X:X:X:X:X:X:X:X:X:X:X:X:X:X>X>X>X>X>X>X>X>XU.>.v o + c ",
"a 5 4 4 Z G.<.w R 5X5X5X7X7X7X7X8X8X7X8X7X7X8X8X7X7X7X3X<X>X! ! ^ ~ ^ ~ :X<X8X7X8X8X8X7X8X8X7X8X5X7X7X7X7X7X7X8X7X8XU.>.v o + c ",
"x e 4 2 Z H.<.w R 7X7X7X8X8X7X7X5X7X8X8X8X8X8X8X7X7X<X! T F * * * * * & S T ! :X>X<X8X7X8X8X8X8X8X8X8X8X5X7X7X5X8X8XU.>.u O + c ",
"c a 4 4 Z H.<.w T 7X7X7X8X8X8X8X8X8X8X8X8X8X8X8X7X<XT S * $ $ $ $ # # $ $ # # * F ~ 7X7X8X8X8X8X8X8X5X7X5X7X5X3X8X8XU.>.u X @ c ",
"c z q 4 Z H.1.i R 5X8X8X8X7X8X8X8X8X8X7X8X8X8X8X4Xh.J & # $ * F K F S * * & $ # $ F :X7X8X8X8X8X8X8X8X8X5X7X7X7X7X5XU.>.u o + c ",
"z b z 5 Z H.1.i R 7X8X7X8X8X8X8X8X8X8X5X8X8X8X8XoX'.E.P S S J L E >X! F * K K * & # & <X8X8X8X8X8X8X8X8X7X7X5X7X7X7XU.>.v O + c ",
"z c c z A H.<.w T 7X8X8X8X8X8X8X8X8X8X8X8X8X8X4XOXtXyXyXQ.g.d.0.! :X! F S T R K * $ # K <X8X8X8X8X8X8X8X5X7X7X7X5X7XU.>.u o + c ",
"r c c x A G.<.i T 7X8X8X8X8X8X8X8X8X8X8X8X8X8X~.*XaXaXaXaXQ.g.u.Y K F & & F K D * $ # % E 3X8X8X8X8X8X8X7X7X5X5X7X7XU.>.u O + c ",
"r c c c +.H.1.w T 3X8X8X8X8X8X8X8X8X8X8X8X8X4XOX*XpXpXaXpX/.E.5.* * * & % * * * & # # # K 3X7X7X8X8X8X8X8X8X8X8X8X8XU.>.u o + n ",
"e d c c &.S.1.w T 7X8X8X8X8X8X8X8X8X8X8X8X8X#X*XuXiXdXpXyXtX%X5.* * * & % * * & & # # # * 3X5X7X8X8X8X8X8X8X8X8X8X8XU.>.u o + c ",
"5 a c b &.H.1.w R 8X8X8X8X8X8X8X8X8X8X8X8X8XW.p.I.OXaXaXyXiXuX[.5.X.C N j * * & $ # # # * 3X7X5X8X8X8X8X8X8X8X8X8X8XU.>.u X + c ",
"4 5 x c &.H.1.f E 8X8X8X8X8X8X8X8X8X8X8X8X3X2XM e X.E.tXpXiXiXtXXXf.7.7.6.I j & # # # $ * 3X7X5X8X8X8X8X8X8X8X8X8X8XU.>.u X + c ",
"4 5 d b &.H.1.f E 8X8X8X8X8X8X8X8X8X8X8X8X7XrXE.h 5.'.%XuXpXiX$X+X'._.].P.7.N 0 # # # $ F 3X7X7X8X8X8X8X8X8X8X8X7X7XU.>.u o @ c ",
"3 5 r r A H.1.f ! 3X8X8X8X8X8X8X8X8X8X5X8XrXdXtXI. X*X*XuXiX*X+X+X+Xf.7.P.y.x 0 # # $ S R 3X7X7X8X8X8X8X8X8X8X8X7X3XY.,.u . + c ",
"5 4 q q Z H.1.f ! 3X8X8X8X8X3X5X8X8X5X5XeXdXdXpX$X.XtXiX=X&X+XXX|.+X'.o.u.I.6 0 # # & T <X3X7X7X8X8X8X8X8X8X8X3X5X3XY.m.y . + c ",
"5 4 4 q Z H.;.f ! 7X8X8X8X8X7X5X8X8X5X5X#XrX#X X].XX@X*X&X$X+XXX{.}.'.i.P.u.s 0 # $ F >X5X3X5X5X8X8X8X8X8X8X8X7X5X7XY.m.y . + c ",
"e 4 4 2 Z S.-.f W 3X7X7X8X8X8X7X8X8X8X5X/.Q.I V I.XX+X+X$X+X+X].'.].'.{.).B p q # & R 3X5X7X7X7X5X7X7X7X7X7X7X7X7X7XY.m.9 . + c ",
"e 4 4 2 Z S.-.i ! 3X7X7X8X8X8X7X8X8X8X8X8X8Xg d  X&X@X&X$X+X].`.f._..Xd.$.c d q % D >X7X7X5X7X5X7X7X5X5X5X7X5X5X7X5XY.m.9 . + c ",
"s 4 4 2 Z S.;.f ! 3X7X7X8X8X8X8X8X8X8X8X8X8X0.u.%X=X&X$X+X|.).p.q.y.i.$.N N x a f T 3X7X7X7X7X7X7X7X7X3X7X7X5X7X7X7XY.m.y . + c ",
"p q 2 2 Z G.-.f ! 3X7X5X8X8X8X8X8X8X8X8X8X7XrX&X+X=X*X@X+X'.y.8.6.8._._.7.o.c r M T.7X7X7X5X5X7X7X5X5X7X7X5X3X7X5X7XY.m.9 . + c ",
"p q 4 4 Z G.;.f W 3X5X7X7X5X8X8X8X8X8X8X8X8X X%X$X%X*X$XXXP.q.%.%.y..X&X'.u.X.x M 1X8X5X8X8X8X5X7X3X5X8X7X5X7X7X5X7XY.m.9 . + c ",
"a a 4 4 Z S.;.f ! 7X7X3X7X7X8X8X8X8X8X8X8X5X#XiX*X.XXX'.s.8.$.%.w.'.*X&X+X`.w.$.m I 3X7X8X8X8X3X5X7X8X8X7X7X7X5X7X5X;XM.9 . + c ",
"a a 5 4 Z G.-.i ! 3X7X7X5X3X5X8X8X8X8X8X8X8XoX%X Xf.w.%.$.$.$.q.P..X%X Xu.w.X.N c M ~ ,X3X3X3X7X8X8X8X8X7X5X7X5X7X5X;XM.y . + c ",
"e p q e A G.-.i ! 3X7X7X7X7X8X8X8X8X8X8X8X8X5X5X5Xg.5.$...$.8.P..X.Xp.w.$.$...N n d N M Q >X3X7X8X8X8X8X7X5X7X7X7X7X;XC.9 . + c ",
"5 a a e A S.-.f ! 3X3X5X7X7X7X7X8X8X8X8X8X8X6X6X3X3X2Xj.7.8.u.{..Xw.$.$.$...B c z b B b N I Q ,X3X3X8X8X8X8X8X8X8X8X;XM.y . + c ",
"5 a z r +.S.-.f ! 7X5X7X5X7X5X5X8X8X8X8X8X3X6X6X3X3X!.d.e.d..XI.%.$.%.$.X.c z V 5.6.%.X...B C I Q <X3X8X8X8X8X8X8X8X;XM.9 . + c ",
"4 5 z a A G.-.f ! 3X7X7X7X7X7X7X8X8X8X8X8X8X6X3X<XQ.f.f.f.d.e.7.8.w.$.c x V %.q.t.y.t.t.q.8.%.o.I I Q 3X8X8X8X8X8X8X;XM.y . + c ",
"4 5 e a A G.-.f ! 3X5X7X7X5X5X7X8X8X3X8X8X8X<X:Xj._.s.f._.y.q.w.8.B n B $.q.y.y.y.y.y.y.y.y.t.w.%.B I h.5X8X8X8X8X8X;XC.9 . + c ",
"4 4 5 5 Z S.-.f ! 3X3X7X8X8X8X8X8X8X8X8X6X3X^ U i.i.d._._.s.s.7.b c o.8.y.y.y.q.%.o.7.8.y.y.y.y.q.$.N I h.3X8X8X5X7X;XM.9 . + c ",
"4 4 5 5 Z S.-.f ! 3X7X7X8X8X8X8X8X8X8X8X6X>XU m y.w.s._.f.s.7.N b 5.y.y.y.w.8.6...B %.O.7.7.%.%.$.o...N I <X8X8X7X7X;XM.9 . + c ",
"2 4 4 4 Z S.-.f W 7X5X7X8X8X7X5X8X8X8X8X<XY B b y.7.8.f.s.8.N V 8.t.y.y.y.w.7.X.b ..%.%.o.%.o.o.......V N T.8X8X7X7X;XM.y . + c ",
"4 4 4 2 Z S.-.f ! 3X5X7X8X8X3X7X8X8X8X3X:X5...N 7.X.o.7.X.V o.8.y.y.y.y.y.8.o.B x m q.8.6.q.8.6.o...V B c ,X8X8X7X5X;XC.9 . + c ",
"5 4 4 2 Z S.-.i ! 3X3X8X8X8X5X7X8X8X7X3X0.5.X.b ..b o.o.m o.y.y.y.y.y.y.w.6.B x z o.y.s.y.y.e.6.8.o.N m d T.8X8X7X5X;XM.9 . + c ",
"5 4 4 4 Z S.-.f ! 3X8X8X8X8X7X7X8X8X7X2X0.X.X.m c N o.7.7.q.y.y.y.y.y.w.q.%.c z X.y.s.s.y.s.8.6.t.%.N x p >X7X8X7X7X;XM.9 . + c ",
"d 5 4 4 Z S.-.f ! 3X8X3X8X8X8X5X8X8X3XT.9.o.o.c x X.6.8.t.u.u.y.y.y.y.w.7.X.x c y.s.s.i.s.s.6.o.w.%.c a i T.7X5X5X3X;XM.y . + c ",
"a 5 5 4 Z S.-.f ! 8X8X8X8X8X8X8X8X8X3Xh.5.$.X.N N o.8.y.f.f.f.d.u.w.8.8...c a B e.f.y.i.f.q.%.6.w.X.n a 5 T.5X7X7X7X;XC.y . + x ",
"z r q 5 A S.;.f ! 3X8X8X8X8X8X8X8X8X2X0.%.$.X.b ..6.y.s.P.P.s.u.u.o.V o.N d Y E.j.w.s.s.f.O.o.8.t...c a i T.8X5X7X5X;XM.9 . 2 c ",
"x a e 5 Z G.2.j ! 3X8X8X8X8X8X8X8X7X,X9.6.o.N b o.7.q.y.w.q.y.I.6.V X.B M U 7XeXeXa.f.k.q.6.$.w.t.B a 5 K <XwX5X5X3X;XM.9 . + c ",
"z z p e A S.-.j ! 3X8X8X8X8X8X8X8X3XQ 9.$.o.X.N o.8.6.#.d 4 B u.$.b N d Y ^ * K ,XsXk.r.B %.%.y.w.N a 5 R <X5X7X7X7X;XM.9 . + c ",
"d z z a +.S.;.j ! 3X8X8X8X8X3X7X7X,X9.%.$.X.B V 5.w.u.p.n 5 x n B c Y E R <XK eXfXfXsX_ b  .%.y.q.N a q W 3X7X7X7X5X;XM.9 . + c ",
"a l z a +.A.=.k ~ 8X8X8X3X8X8X8X3XQ 9.q.7.o.b o.7.y.d.f.%.$.$.V M 7 3.,XK S * S H ^ 0X) ( )  .w.q.m 5 d ,X7X7X7X7X5X;XM.9 . + c ",
"a c c c &.A.=.k ^ 8X8X8X8X8X8X8X3X0.6.7.8.B b %.q.i.s.f.8.%.$.V t / _ k.fXfX<XL 6XK 1X) ( , (  .o.c 5 d ,X8X5X7X7X7X;XM.9 . + c ",
"e z c c &.A.=.k ^ 7X8X8X8X8X8X8X4Xt.7.6.o.N b %.t.p.u.s.w.$.m B ` ( _ 4.>XK K ! fX>XW ( , , > 7 x p p d ,X8X5X7X5X5X;XM.y . + c ",
"5 a c b &.A.=.k ~ 8X8X8X8X8X8X8X4Xa.6.6.5.o.o.%.t.p.p.s.8.m %.s.r.O.b ` 3.>X7XwXwXh.` , , > : = z q p d ,X8X7X7X7X7X;XM.9 . + c ",
"5 a c c &.A.=.k ^ 3X8X8X8X8X8X4X~.s.w.6. .7.6.%.$.$.%.q.P.u.w.).f.d.6.t ` 4.4.4.` ` / , > : = = - e p x ,X7X7X5X7X5X;XM.9 . + c ",
"3 e x c +.A.=.k ^ 8X8X8X8X8X8X4X}.f.s.w.6.t.7.6.$.$.o.s.|.|.i.q.f.}.w.6.B 8 ( ( ( / , > : = = = 1 a x m 1X7X8X8X7X3X;XM.9 . + c ",
"4 5 a x +.A.=.k ^ 3X8X8X8X8X8X4X9X{.f.f.f._.8.%.%.t.y.`.XX]._.i.f.}.f.w.6.c 6 7 / , > ; = = - 1 p a c 5.2X8X8X8X5X7X;XM.9 . + c ",
"4 5 a z A A.=.k ^ 3X8X8X8X8X8X8X5X/.{.{.~.{.f.w.8.u.`.].'.P._.`.}.XX'.y.6.3.r 1 > > : ; = - 1 r c m X.t.2X8X8X8X7X7X;XM.9 . + n ",
"4 5 e a A A.=.k ~ 7X6X7X7X7X7X7X6X5X/./.4X9X/.d.i.f.f.}.f.y.t.i.f.}.f.i.6. .z e 7 : ; - 1 < r b 5.6.w.E.4X8X7X7X5X7X;XM.y . + c ",
"4 3 5 e A V.=.M ^ 7X6X3X7X7X7X5X6X6X6X7X5X3X6XQ.{.].'.f.f.i.e.w.i.f.f.i.e.X.b r < ; - 1 c M C 9.g.g.E.4X8X3X8X7X5X7X;XM.9 . @ c ",
"4 4 4 5 Z S.=.j ~ 3X3X6X7X7X7X8X6X6X6X6X8X6X6X6X0XoX!.!.~.!.!.!.~.!.!.!.Q.g.0.U H t K Y 0.g.g.j.3X8X6X6X8X7X7X6X7X8X;XM.y . + c ",
"5 4 4 4 Z V.;...R.^.^.^.^.^.^.(.^.^.^.^.^.qX^.qX^.^.qX^.qXqX^.qXqXqXqXqXqXqXqXqXqXqXqXqXqXqXqXqXqXqXqXqXqXqXqXqXqX(.-XC.9 . + c ",
"5 4 4 2 Z V.2.2.B.B.B.B.B.B.B.B.B.B.B.B.B.J.J.J.H.H.J.J.J.J.J.J.K.L.L.L.L.L.L.L.L.L.L.L.L.L.L.L.L.L.L.L.L.L.L.L.L.L.L.m.9 . + c ",
"5 5 4 2 Z n.' ' } } } ' ' ' } ' ' ' ' ' ' } } } ' ' } ' } } ' ' } } } } } } } } ' ' ' ' } } } } } } } } } } } } } } ' ' 6 X + c ",
"p 5 4 4 y v a 5 r 5 3 e 2 0 + 2 2 2 2 2 2 2 2 2 2 2 4 2 + 2 2 2 0 2 2 2 + < 2 2 + + + + 2 2 + + 2 2 2 2 2 2 + 2 2 2 2 2 @ . + c ",
"p 5 4 4 5 y d 6 3 . . q X O O + 0 @ O X X X e e 3 3 e o   2 e r r 2 O .   X 0 X O O X + 2 2 .   2 4 4 4 4 + O O O o @ 4 o   + c "
};
